# Blender v3.4.1 OBJ File: 'Circle_Caps_and_Bottles.blend'
# www.blender.org
mtllib Circle_cylinder_bottle.mtl
o Bottle_Cylinder
v 0.000000 -0.038000 -0.038000
v 0.000000 0.011400 -0.022040
v 0.000000 0.038000 -0.038000
v 0.007413 -0.038000 -0.037270
v 0.004300 0.011400 -0.021617
v 0.007413 0.038000 -0.037270
v 0.014542 -0.038000 -0.035107
v 0.008434 0.011400 -0.020362
v 0.014542 0.038000 -0.035107
v 0.021112 -0.038000 -0.031596
v 0.012245 0.011400 -0.018326
v 0.021112 0.038000 -0.031596
v 0.015585 0.011400 -0.015585
v 0.026870 -0.038000 -0.026870
v 0.026870 0.038000 -0.026870
v 0.031596 -0.038000 -0.021112
v 0.018326 0.011400 -0.012245
v 0.031596 0.038000 -0.021112
v 0.035107 -0.038000 -0.014542
v 0.020362 0.011400 -0.008434
v 0.035107 0.038000 -0.014542
v 0.037270 -0.038000 -0.007413
v 0.021617 0.011400 -0.004300
v 0.037270 0.038000 -0.007413
v 0.038000 -0.038000 0.000000
v 0.022040 0.011400 0.000000
v 0.038000 0.038000 0.000000
v 0.037270 -0.038000 0.007413
v 0.021617 0.011400 0.004300
v 0.037270 0.038000 0.007413
v 0.035107 -0.038000 0.014542
v 0.020362 0.011400 0.008434
v 0.035107 0.038000 0.014542
v 0.031596 -0.038000 0.021112
v 0.018326 0.011400 0.012245
v 0.031596 0.038000 0.021112
v 0.026870 -0.038000 0.026870
v 0.015585 0.011400 0.015585
v 0.026870 0.038000 0.026870
v 0.021112 -0.038000 0.031596
v 0.012245 0.011400 0.018326
v 0.021112 0.038000 0.031596
v 0.008434 0.011400 0.020362
v 0.014542 -0.038000 0.035107
v 0.014542 0.038000 0.035107
v 0.004300 0.011400 0.021617
v 0.007413 -0.038000 0.037270
v 0.007413 0.038000 0.037270
v 0.000000 0.011400 0.022040
v 0.000000 -0.038000 0.038000
v 0.000000 0.038000 0.038000
v -0.007413 -0.038000 0.037270
v -0.004300 0.011400 0.021617
v -0.007413 0.038000 0.037270
v -0.014542 -0.038000 0.035107
v -0.008434 0.011400 0.020362
v -0.014542 0.038000 0.035107
v -0.021112 -0.038000 0.031596
v -0.012245 0.011400 0.018326
v -0.021112 0.038000 0.031596
v -0.026870 -0.038000 0.026870
v -0.015585 0.011400 0.015585
v -0.026870 0.038000 0.026870
v -0.031596 -0.038000 0.021112
v -0.018326 0.011400 0.012245
v -0.031596 0.038000 0.021112
v -0.035107 -0.038000 0.014542
v -0.020362 0.011400 0.008434
v -0.035107 0.038000 0.014542
v -0.021617 0.011400 0.004300
v -0.037270 -0.038000 0.007413
v -0.037270 0.038000 0.007413
v -0.022040 0.011400 0.000000
v -0.038000 -0.038000 0.000000
v -0.038000 0.038000 0.000000
v -0.021617 0.011400 -0.004300
v -0.037270 -0.038000 -0.007413
v -0.037270 0.038000 -0.007413
v -0.020362 0.011400 -0.008434
v -0.035107 -0.038000 -0.014542
v -0.035107 0.038000 -0.014542
v -0.018326 0.011400 -0.012245
v -0.031596 -0.038000 -0.021112
v -0.031596 0.038000 -0.021112
v -0.015585 0.011400 -0.015585
v -0.026870 -0.038000 -0.026870
v -0.026870 0.038000 -0.026870
v -0.012245 0.011400 -0.018326
v -0.021112 -0.038000 -0.031596
v -0.021112 0.038000 -0.031596
v -0.008434 0.011400 -0.020362
v -0.014542 -0.038000 -0.035107
v -0.014542 0.038000 -0.035107
v -0.004300 0.011400 -0.021617
v -0.007413 -0.038000 -0.037270
v -0.007413 0.038000 -0.037270
v -0.022040 0.038000 0.000000
v -0.020362 0.038000 0.008434
v -0.021617 0.038000 0.004300
v -0.021617 0.038000 -0.004300
v -0.018326 0.038000 0.012245
v -0.018326 0.038000 -0.012245
v -0.020362 0.038000 -0.008434
v -0.015585 0.038000 -0.015585
v -0.012245 0.038000 0.018326
v -0.012245 0.038000 -0.018326
v 0.000000 0.038000 -0.022040
v -0.004300 0.038000 -0.021617
v 0.008434 0.038000 -0.020362
v 0.004300 0.038000 -0.021617
v -0.008434 0.038000 -0.020362
v -0.015585 0.038000 0.015585
v -0.008434 0.038000 0.020362
v 0.000000 0.038000 0.022040
v 0.004300 0.038000 0.021617
v -0.004300 0.038000 0.021617
v 0.008434 0.038000 0.020362
v 0.012245 0.038000 -0.018326
v 0.012245 0.038000 0.018326
v 0.018326 0.038000 -0.012245
v 0.018326 0.038000 0.012245
v 0.015585 0.038000 -0.015585
v 0.022040 0.038000 0.000000
v 0.021617 0.038000 -0.004300
v 0.020362 0.038000 0.008434
v 0.021617 0.038000 0.004300
v 0.020362 0.038000 -0.008434
v 0.015585 0.038000 0.015585
vt 1.000000 0.500000
vt 1.000000 1.000000
vt 0.968750 1.000000
vt 0.968750 0.500000
vt 0.937500 1.000000
vt 0.937500 0.500000
vt 0.906250 1.000000
vt 0.906250 0.500000
vt 0.875000 1.000000
vt 0.875000 0.500000
vt 0.843750 1.000000
vt 0.843750 0.500000
vt 0.812500 1.000000
vt 0.812500 0.500000
vt 0.781250 1.000000
vt 0.781250 0.500000
vt 0.750000 1.000000
vt 0.750000 0.500000
vt 0.718750 1.000000
vt 0.718750 0.500000
vt 0.687500 1.000000
vt 0.687500 0.500000
vt 0.656250 1.000000
vt 0.656250 0.500000
vt 0.625000 1.000000
vt 0.625000 0.500000
vt 0.593750 1.000000
vt 0.593750 0.500000
vt 0.562500 1.000000
vt 0.562500 0.500000
vt 0.531250 1.000000
vt 0.531250 0.500000
vt 0.500000 1.000000
vt 0.500000 0.500000
vt 0.468750 1.000000
vt 0.468750 0.500000
vt 0.437500 1.000000
vt 0.437500 0.500000
vt 0.406250 1.000000
vt 0.406250 0.500000
vt 0.375000 1.000000
vt 0.375000 0.500000
vt 0.343750 1.000000
vt 0.343750 0.500000
vt 0.312500 1.000000
vt 0.312500 0.500000
vt 0.281250 1.000000
vt 0.281250 0.500000
vt 0.250000 1.000000
vt 0.250000 0.500000
vt 0.218750 1.000000
vt 0.218750 0.500000
vt 0.187500 1.000000
vt 0.187500 0.500000
vt 0.156250 1.000000
vt 0.156250 0.500000
vt 0.125000 1.000000
vt 0.125000 0.500000
vt 0.093750 1.000000
vt 0.093750 0.500000
vt 0.062500 1.000000
vt 0.062500 0.500000
vt 0.158156 0.471731
vt 0.116663 0.449553
vt 0.080294 0.419706
vt 0.050447 0.383337
vt 0.028269 0.341844
vt 0.121396 0.303270
vt 0.134259 0.327335
vt 0.151571 0.348429
vt 0.172665 0.365741
vt 0.196730 0.378604
vt 0.222843 0.386525
vt 0.250000 0.389200
vt 0.277157 0.386525
vt 0.303270 0.378604
vt 0.327335 0.365741
vt 0.348429 0.348429
vt 0.365741 0.327335
vt 0.378604 0.303270
vt 0.386525 0.277157
vt 0.389200 0.250000
vt 0.386525 0.222843
vt 0.378604 0.196730
vt 0.471731 0.158156
vt 0.485388 0.203178
vt 0.490000 0.250000
vt 0.485388 0.296822
vt 0.471731 0.341844
vt 0.449553 0.383337
vt 0.419706 0.419706
vt 0.383337 0.449553
vt 0.341844 0.471731
vt 0.296822 0.485388
vt 0.250000 0.490000
vt 0.203178 0.485388
vt 0.028269 0.158156
vt 0.050447 0.116663
vt 0.080294 0.080294
vt 0.116663 0.050447
vt 0.158156 0.028269
vt 0.203178 0.014612
vt 0.250000 0.010000
vt 0.296822 0.014612
vt 0.341844 0.028269
vt 0.383337 0.050447
vt 0.419706 0.080294
vt 0.449553 0.116663
vt 0.365741 0.172665
vt 0.348429 0.151571
vt 0.327335 0.134259
vt 0.303269 0.121396
vt 0.277157 0.113475
vt 0.250000 0.110800
vt 0.222843 0.113475
vt 0.196730 0.121396
vt 0.172665 0.134259
vt 0.151571 0.151571
vt 0.134259 0.172665
vt 0.121396 0.196730
vt 0.113475 0.222843
vt 0.110800 0.250000
vt 0.113475 0.277157
vt 0.014612 0.296822
vt 0.010000 0.250000
vt 0.014612 0.203178
vt 0.031250 1.000000
vt 0.031250 0.500000
vt 0.000000 1.000000
vt 0.000000 0.500000
vt 0.703178 0.485388
vt 0.750000 0.490000
vt 0.796822 0.485388
vt 0.841844 0.471731
vt 0.883337 0.449553
vt 0.919706 0.419706
vt 0.949553 0.383337
vt 0.971731 0.341844
vt 0.985388 0.296822
vt 0.990000 0.250000
vt 0.985388 0.203178
vt 0.971731 0.158156
vt 0.949553 0.116663
vt 0.919706 0.080294
vt 0.883337 0.050447
vt 0.841844 0.028269
vt 0.796822 0.014612
vt 0.750000 0.010000
vt 0.703178 0.014612
vt 0.658156 0.028269
vt 0.616663 0.050447
vt 0.580294 0.080294
vt 0.550447 0.116663
vt 0.528269 0.158156
vt 0.514612 0.203178
vt 0.510000 0.250000
vt 0.514612 0.296822
vt 0.528269 0.341844
vt 0.550447 0.383337
vt 0.580294 0.419706
vt 0.616663 0.449553
vt 0.658156 0.471731
vt 1.000000 0.937500
vt 1.000000 0.500000
vt 0.968750 0.500000
vt 0.968750 0.937500
vt 0.937500 0.500000
vt 0.937500 0.937500
vt 0.906250 0.500000
vt 0.906250 0.937500
vt 0.875000 0.500000
vt 0.875000 0.937500
vt 0.843750 0.500000
vt 0.843750 0.937500
vt 0.812500 0.500000
vt 0.812500 0.937500
vt 0.781250 0.500000
vt 0.781250 0.937500
vt 0.750000 0.500000
vt 0.750000 0.937500
vt 0.718750 0.500000
vt 0.718750 0.937500
vt 0.687500 0.500000
vt 0.687500 0.937500
vt 0.656250 0.500000
vt 0.656250 0.937500
vt 0.625000 0.500000
vt 0.625000 0.937500
vt 0.593750 0.500000
vt 0.593750 0.937500
vt 0.562500 0.500000
vt 0.562500 0.937500
vt 0.531250 0.500000
vt 0.531250 0.937500
vt 0.500000 0.500000
vt 0.500000 0.937500
vt 0.468750 0.500000
vt 0.468750 0.937500
vt 0.437500 0.500000
vt 0.437500 0.937500
vt 0.406250 0.500000
vt 0.406250 0.937500
vt 0.375000 0.500000
vt 0.375000 0.937500
vt 0.343750 0.500000
vt 0.343750 0.937500
vt 0.312500 0.500000
vt 0.312500 0.937500
vt 0.281250 0.500000
vt 0.281250 0.937500
vt 0.250000 0.500000
vt 0.250000 0.937500
vt 0.218750 0.500000
vt 0.218750 0.937500
vt 0.187500 0.500000
vt 0.187500 0.937500
vt 0.156250 0.500000
vt 0.156250 0.937500
vt 0.125000 0.500000
vt 0.125000 0.937500
vt 0.093750 0.500000
vt 0.093750 0.937500
vt 0.062500 0.500000
vt 0.062500 0.937500
vt 0.031250 0.500000
vt 0.031250 0.937500
vt 0.000000 0.500000
vt 0.000000 0.937500
vt 0.550447 0.383337
vt 0.528269 0.341844
vt 0.514612 0.296822
vt 0.510000 0.250000
vt 0.514612 0.203178
vt 0.528269 0.158156
vt 0.550447 0.116663
vt 0.580294 0.080294
vt 0.616663 0.050447
vt 0.658156 0.028269
vt 0.703178 0.014612
vt 0.750000 0.010000
vt 0.796822 0.014612
vt 0.841844 0.028269
vt 0.883337 0.050447
vt 0.919706 0.080294
vt 0.949553 0.116663
vt 0.971731 0.158156
vt 0.985388 0.203178
vt 0.990000 0.250000
vt 0.985388 0.296822
vt 0.971731 0.341844
vt 0.949553 0.383337
vt 0.919706 0.419706
vt 0.883337 0.449553
vt 0.841844 0.471731
vt 0.796822 0.485388
vt 0.750000 0.490000
vt 0.703178 0.485388
vt 0.658156 0.471731
vt 0.616663 0.449553
vt 0.580294 0.419706
vn 0.0980 0.0000 -0.9952
vn 0.2903 0.0000 -0.9569
vn 0.4714 0.0000 -0.8819
vn 0.6344 0.0000 -0.7730
vn 0.7730 0.0000 -0.6344
vn 0.8819 0.0000 -0.4714
vn 0.9569 0.0000 -0.2903
vn 0.9952 0.0000 -0.0980
vn 0.9952 0.0000 0.0980
vn 0.9569 0.0000 0.2903
vn 0.8819 0.0000 0.4714
vn 0.7730 0.0000 0.6344
vn 0.6344 0.0000 0.7730
vn 0.4714 0.0000 0.8819
vn 0.2903 0.0000 0.9569
vn 0.0980 0.0000 0.9952
vn -0.0980 0.0000 0.9952
vn -0.2903 0.0000 0.9569
vn -0.4714 0.0000 0.8819
vn -0.6344 0.0000 0.7730
vn -0.7730 0.0000 0.6344
vn -0.8819 0.0000 0.4714
vn -0.9569 0.0000 0.2903
vn -0.9952 0.0000 0.0980
vn -0.9952 0.0000 -0.0980
vn -0.9569 0.0000 -0.2903
vn -0.8819 0.0000 -0.4714
vn -0.7730 0.0000 -0.6344
vn -0.6344 0.0000 -0.7730
vn -0.4714 0.0000 -0.8819
vn 0.0000 1.0000 0.0000
vn -0.2903 0.0000 -0.9569
vn -0.0980 0.0000 -0.9952
vn 0.0000 -1.0000 0.0000
usemtl Red
s off
f 1/1/1 3/2/1 6/3/1 4/4/1
f 4/4/2 6/3/2 9/5/2 7/6/2
f 7/6/3 9/5/3 12/7/3 10/8/3
f 10/8/4 12/7/4 15/9/4 14/10/4
f 14/10/5 15/9/5 18/11/5 16/12/5
f 16/12/6 18/11/6 21/13/6 19/14/6
f 19/14/7 21/13/7 24/15/7 22/16/7
f 22/16/8 24/15/8 27/17/8 25/18/8
f 25/18/9 27/17/9 30/19/9 28/20/9
f 28/20/10 30/19/10 33/21/10 31/22/10
f 31/22/11 33/21/11 36/23/11 34/24/11
f 34/24/12 36/23/12 39/25/12 37/26/12
f 37/26/13 39/25/13 42/27/13 40/28/13
f 40/28/14 42/27/14 45/29/14 44/30/14
f 44/30/15 45/29/15 48/31/15 47/32/15
f 47/32/16 48/31/16 51/33/16 50/34/16
f 50/34/17 51/33/17 54/35/17 52/36/17
f 52/36/18 54/35/18 57/37/18 55/38/18
f 55/38/19 57/37/19 60/39/19 58/40/19
f 58/40/20 60/39/20 63/41/20 61/42/20
f 61/42/21 63/41/21 66/43/21 64/44/21
f 64/44/22 66/43/22 69/45/22 67/46/22
f 67/46/23 69/45/23 72/47/23 71/48/23
f 71/48/24 72/47/24 75/49/24 74/50/24
f 74/50/25 75/49/25 78/51/25 77/52/25
f 77/52/26 78/51/26 81/53/26 80/54/26
f 80/54/27 81/53/27 84/55/27 83/56/27
f 83/56/28 84/55/28 87/57/28 86/58/28
f 86/58/29 87/57/29 90/59/29 89/60/29
f 89/60/30 90/59/30 93/61/30 92/62/30
f 93/63/31 90/64/31 87/65/31 84/66/31 81/67/31 103/68/31 102/69/31 104/70/31 106/71/31 111/72/31 108/73/31 107/74/31 110/75/31 109/76/31 118/77/31 122/78/31 120/79/31 127/80/31 124/81/31 123/82/31 126/83/31 125/84/31 33/85/31 30/86/31 27/87/31 24/88/31 21/89/31 18/90/31 15/91/31 12/92/31 9/93/31 6/94/31 3/95/31 96/96/31
f 69/97/31 66/98/31 63/99/31 60/100/31 57/101/31 54/102/31 51/103/31 48/104/31 45/105/31 42/106/31 39/107/31 36/108/31 33/85/31 125/84/31 121/109/31 128/110/31 119/111/31 117/112/31 115/113/31 114/114/31 116/115/31 113/116/31 105/117/31 112/118/31 101/119/31 98/120/31 99/121/31 97/122/31 100/123/31 103/68/31 81/67/31 78/124/31 75/125/31 72/126/31
f 92/62/32 93/61/32 96/127/32 95/128/32
f 95/128/33 96/127/33 3/129/33 1/130/33
f 95/131/34 1/132/34 4/133/34 7/134/34 10/135/34 14/136/34 16/137/34 19/138/34 22/139/34 25/140/34 28/141/34 31/142/34 34/143/34 37/144/34 40/145/34 44/146/34 47/147/34 50/148/34 52/149/34 55/150/34 58/151/34 61/152/34 64/153/34 67/154/34 71/155/34 74/156/34 77/157/34 80/158/34 83/159/34 86/160/34 89/161/34 92/162/34
usemtl Blue
f 107/163/17 2/164/17 5/165/17 110/166/17
f 110/166/18 5/165/18 8/167/18 109/168/18
f 109/168/19 8/167/19 11/169/19 118/170/19
f 118/170/20 11/169/20 13/171/20 122/172/20
f 13/171/21 17/173/21 120/174/21 122/172/21
f 17/173/22 20/175/22 127/176/22 120/174/22
f 20/175/23 23/177/23 124/178/23 127/176/23
f 23/177/24 26/179/24 123/180/24 124/178/24
f 26/179/25 29/181/25 126/182/25 123/180/25
f 29/181/26 32/183/26 125/184/26 126/182/26
f 32/183/27 35/185/27 121/186/27 125/184/27
f 35/185/28 38/187/28 128/188/28 121/186/28
f 38/187/29 41/189/29 119/190/29 128/188/29
f 41/189/30 43/191/30 117/192/30 119/190/30
f 43/191/32 46/193/32 115/194/32 117/192/32
f 46/193/33 49/195/33 114/196/33 115/194/33
f 49/195/1 53/197/1 116/198/1 114/196/1
f 53/197/2 56/199/2 113/200/2 116/198/2
f 56/199/3 59/201/3 105/202/3 113/200/3
f 59/201/4 62/203/4 112/204/4 105/202/4
f 112/204/5 62/203/5 65/205/5 101/206/5
f 101/206/6 65/205/6 68/207/6 98/208/6
f 98/208/7 68/207/7 70/209/7 99/210/7
f 99/210/8 70/209/8 73/211/8 97/212/8
f 97/212/9 73/211/9 76/213/9 100/214/9
f 100/214/10 76/213/10 79/215/10 103/216/10
f 103/216/11 79/215/11 82/217/11 102/218/11
f 102/218/12 82/217/12 85/219/12 104/220/12
f 104/220/13 85/219/13 88/221/13 106/222/13
f 106/222/14 88/221/14 91/223/14 111/224/14
f 111/224/15 91/223/15 94/225/15 108/226/15
f 108/226/16 94/225/16 2/227/16 107/228/16
f 82/229/31 79/230/31 76/231/31 73/232/31 70/233/31 68/234/31 65/235/31 62/236/31 59/237/31 56/238/31 53/239/31 49/240/31 46/241/31 43/242/31 41/243/31 38/244/31 35/245/31 32/246/31 29/247/31 26/248/31 23/249/31 20/250/31 17/251/31 13/252/31 11/253/31 8/254/31 5/255/31 2/256/31 94/257/31 91/258/31 88/259/31 85/260/31
