# Blender v3.4.1 OBJ File: 'Hexagon_Caps_and_Bottles.blend'
# www.blender.org
mtllib Hexagon_cylinder_bottle.mtl
o Bottle_Cylinder
v 0.000000 -0.038000 -0.038000
v 0.000000 0.011400 -0.024510
v 0.000000 0.038000 -0.038000
v 0.007413 -0.038000 -0.037270
v 0.021917 0.011400 -0.012255
v 0.007413 0.038000 -0.037270
v 0.014542 -0.038000 -0.035107
v 0.021917 0.011400 0.012255
v 0.014542 0.038000 -0.035107
v 0.021112 -0.038000 -0.031596
v 0.000000 0.011400 0.024510
v 0.021112 0.038000 -0.031596
v 0.026870 -0.038000 -0.026870
v -0.021917 0.011400 0.012255
v 0.026870 0.038000 -0.026870
v -0.021917 0.011400 -0.012255
v 0.031596 -0.038000 -0.021112
v 0.031596 0.038000 -0.021112
v 0.035107 -0.038000 -0.014542
v 0.035107 0.038000 -0.014542
v 0.037270 -0.038000 -0.007413
v 0.037270 0.038000 -0.007413
v 0.038000 -0.038000 0.000000
v 0.038000 0.038000 0.000000
v 0.037270 -0.038000 0.007413
v 0.037270 0.038000 0.007413
v 0.035107 -0.038000 0.014542
v 0.035107 0.038000 0.014542
v 0.031596 -0.038000 0.021112
v 0.031596 0.038000 0.021112
v 0.026870 -0.038000 0.026870
v 0.026870 0.038000 0.026870
v 0.021112 -0.038000 0.031596
v 0.021112 0.038000 0.031596
v 0.014542 -0.038000 0.035107
v 0.014542 0.038000 0.035107
v 0.007413 -0.038000 0.037270
v 0.007413 0.038000 0.037270
v 0.000000 -0.038000 0.038000
v 0.000000 0.038000 0.038000
v -0.007413 -0.038000 0.037270
v -0.007413 0.038000 0.037270
v -0.014542 -0.038000 0.035107
v -0.014542 0.038000 0.035107
v -0.021112 -0.038000 0.031596
v -0.021112 0.038000 0.031596
v -0.026870 -0.038000 0.026870
v -0.026870 0.038000 0.026870
v -0.031596 -0.038000 0.021112
v -0.031596 0.038000 0.021112
v -0.035107 -0.038000 0.014542
v -0.035107 0.038000 0.014542
v -0.037270 -0.038000 0.007413
v -0.037270 0.038000 0.007413
v -0.038000 -0.038000 0.000000
v -0.038000 0.038000 0.000000
v -0.037270 -0.038000 -0.007413
v -0.037270 0.038000 -0.007413
v -0.035107 -0.038000 -0.014542
v -0.035107 0.038000 -0.014542
v -0.031596 -0.038000 -0.021112
v -0.031596 0.038000 -0.021112
v -0.026870 -0.038000 -0.026870
v -0.026870 0.038000 -0.026870
v -0.021112 -0.038000 -0.031596
v -0.021112 0.038000 -0.031596
v -0.014542 -0.038000 -0.035107
v -0.014542 0.038000 -0.035107
v -0.007413 -0.038000 -0.037270
v -0.007413 0.038000 -0.037270
v -0.021917 0.038000 0.012255
v -0.021917 0.038000 -0.012255
v 0.000000 0.038000 -0.024510
v 0.000000 0.038000 0.024510
v 0.021917 0.038000 -0.012255
v 0.021917 0.038000 0.012255
vt 1.000000 0.500000
vt 1.000000 1.000000
vt 0.968750 1.000000
vt 0.968750 0.500000
vt 0.937500 1.000000
vt 0.937500 0.500000
vt 0.906250 1.000000
vt 0.906250 0.500000
vt 0.875000 1.000000
vt 0.875000 0.500000
vt 0.843750 1.000000
vt 0.843750 0.500000
vt 0.812500 1.000000
vt 0.812500 0.500000
vt 0.781250 1.000000
vt 0.781250 0.500000
vt 0.750000 1.000000
vt 0.750000 0.500000
vt 0.718750 1.000000
vt 0.718750 0.500000
vt 0.687500 1.000000
vt 0.687500 0.500000
vt 0.656250 1.000000
vt 0.656250 0.500000
vt 0.625000 1.000000
vt 0.625000 0.500000
vt 0.593750 1.000000
vt 0.593750 0.500000
vt 0.562500 1.000000
vt 0.562500 0.500000
vt 0.531250 1.000000
vt 0.531250 0.500000
vt 0.500000 1.000000
vt 0.500000 0.500000
vt 0.468750 1.000000
vt 0.468750 0.500000
vt 0.437500 1.000000
vt 0.437500 0.500000
vt 0.406250 1.000000
vt 0.406250 0.500000
vt 0.375000 1.000000
vt 0.375000 0.500000
vt 0.343750 1.000000
vt 0.343750 0.500000
vt 0.312500 1.000000
vt 0.312500 0.500000
vt 0.281250 1.000000
vt 0.281250 0.500000
vt 0.250000 1.000000
vt 0.250000 0.500000
vt 0.218750 1.000000
vt 0.218750 0.500000
vt 0.187500 1.000000
vt 0.187500 0.500000
vt 0.156250 1.000000
vt 0.156250 0.500000
vt 0.125000 1.000000
vt 0.125000 0.500000
vt 0.093750 1.000000
vt 0.093750 0.500000
vt 0.062500 1.000000
vt 0.062500 0.500000
vt 0.111580 0.327400
vt 0.028269 0.341844
vt 0.014612 0.296822
vt 0.010000 0.250000
vt 0.014612 0.203178
vt 0.028269 0.158156
vt 0.050447 0.116663
vt 0.080294 0.080294
vt 0.116663 0.050447
vt 0.158156 0.028269
vt 0.203178 0.014612
vt 0.250000 0.010000
vt 0.296822 0.014612
vt 0.341844 0.028269
vt 0.383337 0.050447
vt 0.419706 0.080294
vt 0.449553 0.116663
vt 0.471731 0.158156
vt 0.388420 0.172600
vt 0.250000 0.095200
vt 0.111580 0.172600
vt 0.485388 0.203178
vt 0.490000 0.250000
vt 0.485388 0.296822
vt 0.471731 0.341844
vt 0.449553 0.383337
vt 0.419706 0.419706
vt 0.383337 0.449553
vt 0.341844 0.471731
vt 0.296822 0.485388
vt 0.250000 0.490000
vt 0.203178 0.485388
vt 0.158156 0.471731
vt 0.116663 0.449553
vt 0.080294 0.419706
vt 0.050447 0.383337
vt 0.250000 0.404800
vt 0.388420 0.327400
vt 0.031250 1.000000
vt 0.031250 0.500000
vt 0.000000 1.000000
vt 0.000000 0.500000
vt 0.703178 0.485388
vt 0.750000 0.490000
vt 0.796822 0.485388
vt 0.841844 0.471731
vt 0.883337 0.449553
vt 0.919706 0.419706
vt 0.949553 0.383337
vt 0.971731 0.341844
vt 0.985388 0.296822
vt 0.990000 0.250000
vt 0.985388 0.203178
vt 0.971731 0.158156
vt 0.949553 0.116663
vt 0.919706 0.080294
vt 0.883337 0.050447
vt 0.841844 0.028269
vt 0.796822 0.014612
vt 0.750000 0.010000
vt 0.703178 0.014612
vt 0.658156 0.028269
vt 0.616663 0.050447
vt 0.580294 0.080294
vt 0.550447 0.116663
vt 0.528269 0.158156
vt 0.514612 0.203178
vt 0.510000 0.250000
vt 0.514612 0.296822
vt 0.528269 0.341844
vt 0.550447 0.383337
vt 0.580294 0.419706
vt 0.616663 0.449553
vt 0.658156 0.471731
vt 1.000000 0.937500
vt 1.000000 0.500000
vt 0.833333 0.500000
vt 0.833333 0.937500
vt 0.666667 0.500000
vt 0.666667 0.937500
vt 0.500000 0.500000
vt 0.500000 0.937500
vt 0.333333 0.500000
vt 0.333333 0.937500
vt 0.166667 0.500000
vt 0.166667 0.937500
vt -0.000000 0.500000
vt -0.000000 0.937500
vt 0.750000 0.010000
vt 0.957846 0.130000
vt 0.957846 0.370000
vt 0.750000 0.490000
vt 0.542154 0.370000
vt 0.542154 0.130000
vn 0.0980 0.0000 -0.9952
vn 0.2903 0.0000 -0.9569
vn 0.4714 0.0000 -0.8819
vn 0.6344 0.0000 -0.7730
vn 0.7730 0.0000 -0.6344
vn 0.8819 0.0000 -0.4714
vn 0.9569 0.0000 -0.2903
vn 0.9952 0.0000 -0.0980
vn 0.9952 0.0000 0.0980
vn 0.9569 0.0000 0.2903
vn 0.8819 0.0000 0.4714
vn 0.7730 0.0000 0.6344
vn 0.6344 0.0000 0.7730
vn 0.4714 0.0000 0.8819
vn 0.2903 0.0000 0.9569
vn 0.0980 0.0000 0.9952
vn -0.0980 0.0000 0.9952
vn -0.2903 0.0000 0.9569
vn -0.4714 0.0000 0.8819
vn -0.6344 0.0000 0.7730
vn -0.7730 0.0000 0.6344
vn -0.8819 0.0000 0.4714
vn -0.9569 0.0000 0.2903
vn -0.9952 0.0000 0.0980
vn -0.9952 0.0000 -0.0980
vn -0.9569 0.0000 -0.2903
vn -0.8819 0.0000 -0.4714
vn -0.7730 0.0000 -0.6344
vn -0.6344 0.0000 -0.7730
vn -0.4714 0.0000 -0.8819
vn 0.0000 1.0000 -0.0000
vn -0.2903 0.0000 -0.9569
vn -0.0980 0.0000 -0.9952
vn 0.0000 -1.0000 0.0000
vn -0.4881 0.0000 0.8728
vn -1.0000 0.0000 0.0000
vn -0.4881 0.0000 -0.8728
vn 0.4881 0.0000 -0.8728
vn 1.0000 0.0000 0.0000
vn 0.4881 0.0000 0.8728
usemtl Red
s off
f 1/1/1 3/2/1 6/3/1 4/4/1
f 4/4/2 6/3/2 9/5/2 7/6/2
f 7/6/3 9/5/3 12/7/3 10/8/3
f 10/8/4 12/7/4 15/9/4 13/10/4
f 13/10/5 15/9/5 18/11/5 17/12/5
f 17/12/6 18/11/6 20/13/6 19/14/6
f 19/14/7 20/13/7 22/15/7 21/16/7
f 21/16/8 22/15/8 24/17/8 23/18/8
f 23/18/9 24/17/9 26/19/9 25/20/9
f 25/20/10 26/19/10 28/21/10 27/22/10
f 27/22/11 28/21/11 30/23/11 29/24/11
f 29/24/12 30/23/12 32/25/12 31/26/12
f 31/26/13 32/25/13 34/27/13 33/28/13
f 33/28/14 34/27/14 36/29/14 35/30/14
f 35/30/15 36/29/15 38/31/15 37/32/15
f 37/32/16 38/31/16 40/33/16 39/34/16
f 39/34/17 40/33/17 42/35/17 41/36/17
f 41/36/18 42/35/18 44/37/18 43/38/18
f 43/38/19 44/37/19 46/39/19 45/40/19
f 45/40/20 46/39/20 48/41/20 47/42/20
f 47/42/21 48/41/21 50/43/21 49/44/21
f 49/44/22 50/43/22 52/45/22 51/46/22
f 51/46/23 52/45/23 54/47/23 53/48/23
f 53/48/24 54/47/24 56/49/24 55/50/24
f 55/50/25 56/49/25 58/51/25 57/52/25
f 57/52/26 58/51/26 60/53/26 59/54/26
f 59/54/27 60/53/27 62/55/27 61/56/27
f 61/56/28 62/55/28 64/57/28 63/58/28
f 63/58/29 64/57/29 66/59/29 65/60/29
f 65/60/30 66/59/30 68/61/30 67/62/30
f 72/63/31 60/64/31 58/65/31 56/66/31 54/67/31 52/68/31 50/69/31 48/70/31 46/71/31 44/72/31 42/73/31 40/74/31 38/75/31 36/76/31 34/77/31 32/78/31 30/79/31 28/80/31 76/81/31 74/82/31 71/83/31
f 28/80/31 26/84/31 24/85/31 22/86/31 20/87/31 18/88/31 15/89/31 12/90/31 9/91/31 6/92/31 3/93/31 70/94/31 68/95/31 66/96/31 64/97/31 62/98/31 60/64/31 72/63/31 73/99/31 75/100/31 76/81/31
f 67/62/32 68/61/32 70/101/32 69/102/32
f 69/102/33 70/101/33 3/103/33 1/104/33
f 69/105/34 1/106/34 4/107/34 7/108/34 10/109/34 13/110/34 17/111/34 19/112/34 21/113/34 23/114/34 25/115/34 27/116/34 29/117/34 31/118/34 33/119/34 35/120/34 37/121/34 39/122/34 41/123/34 43/124/34 45/125/34 47/126/34 49/127/34 51/128/34 53/129/34 55/130/34 57/131/34 59/132/34 61/133/34 63/134/34 65/135/34 67/136/34
usemtl Blue
f 73/137/35 2/138/35 5/139/35 75/140/35
f 5/139/36 8/141/36 76/142/36 75/140/36
f 8/141/37 11/143/37 74/144/37 76/142/37
f 11/143/38 14/145/38 71/146/38 74/144/38
f 71/146/39 14/145/39 16/147/39 72/148/39
f 72/148/40 16/147/40 2/149/40 73/150/40
f 11/151/31 8/152/31 5/153/31 2/154/31 16/155/31 14/156/31
