# Blender v3.4.1 OBJ File: 'Hexagon_Caps_and_Bottles.blend'
# www.blender.org
mtllib Hexagon_octagonal_bottle.mtl
o Bottle_Cylinder
v -0.014542 -0.038000 -0.035107
v 0.000000 0.011400 -0.024510
v -0.014542 0.038000 -0.035107
v 0.014542 -0.038000 -0.035107
v 0.021916 0.011400 -0.012255
v 0.014542 0.038000 -0.035107
v 0.035107 -0.038000 -0.014542
v 0.021916 0.011400 0.012255
v 0.035107 0.038000 -0.014542
v 0.035107 -0.038000 0.014542
v 0.000000 0.011400 0.024510
v 0.035107 0.038000 0.014542
v 0.014542 -0.038000 0.035107
v -0.021916 0.011400 0.012255
v 0.014542 0.038000 0.035107
v -0.014542 -0.038000 0.035107
v -0.021916 0.011400 -0.012255
v -0.014542 0.038000 0.035107
v -0.035107 -0.038000 0.014542
v -0.035107 0.038000 0.014542
v -0.035107 -0.038000 -0.014542
v -0.035107 0.038000 -0.014542
v -0.021916 0.038000 -0.012255
v 0.000000 0.038000 -0.024510
v 0.021916 0.038000 -0.012255
v 0.000000 0.038000 0.024510
v -0.021916 0.038000 0.012255
v 0.021916 0.038000 0.012255
vt 1.000000 0.500000
vt 1.000000 1.000000
vt 0.875000 1.000000
vt 0.875000 0.500000
vt 0.750000 1.000000
vt 0.750000 0.500000
vt 0.625000 1.000000
vt 0.625000 0.500000
vt 0.500000 1.000000
vt 0.500000 0.500000
vt 0.375000 1.000000
vt 0.375000 0.500000
vt 0.250000 1.000000
vt 0.250000 0.500000
vt 0.407503 0.268537
vt 0.490000 0.250000
vt 0.419706 0.419706
vt 0.250000 0.490000
vt 0.080294 0.419706
vt 0.010000 0.250000
vt 0.092497 0.231463
vt 0.151736 0.374479
vt 0.309239 0.393017
vt 0.080294 0.080294
vt 0.250000 0.010000
vt 0.419706 0.080294
vt 0.348264 0.125521
vt 0.190761 0.106983
vt 0.125000 1.000000
vt 0.125000 0.500000
vt 0.000000 1.000000
vt 0.000000 0.500000
vt 0.580294 0.419706
vt 0.750000 0.490000
vt 0.919706 0.419706
vt 0.990000 0.250000
vt 0.919706 0.080294
vt 0.750000 0.010000
vt 0.580294 0.080294
vt 0.510000 0.250000
vt 1.000000 0.500000
vt 0.833333 0.500000
vt 0.833333 0.937500
vt 1.000000 0.937500
vt 0.666667 0.500000
vt 0.666667 0.937500
vt 0.500000 0.500000
vt 0.500000 0.937500
vt 0.333333 0.500000
vt 0.333333 0.937500
vt 0.166667 0.500000
vt 0.166667 0.937500
vt -0.000000 0.500000
vt -0.000000 0.937500
vt 0.957846 0.370000
vt 0.750000 0.490000
vt 0.542154 0.370000
vt 0.542154 0.130000
vt 0.750000 0.010000
vt 0.957846 0.130000
vn -0.0000 0.0000 -1.0000
vn 0.7071 0.0000 -0.7071
vn 1.0000 0.0000 -0.0000
vn 0.7071 0.0000 0.7071
vn 0.0000 0.0000 1.0000
vn -0.7071 0.0000 0.7071
vn 0.0000 1.0000 0.0000
vn -1.0000 0.0000 0.0000
vn -0.7071 0.0000 -0.7071
vn 0.0000 -1.0000 0.0000
vn -0.4881 0.0000 0.8728
vn -0.4881 0.0000 -0.8728
vn 0.4881 0.0000 -0.8728
vn 0.4881 0.0000 0.8728
usemtl Red
s off
f 1/1/1 3/2/1 6/3/1 4/4/1
f 4/4/2 6/3/2 9/5/2 7/6/2
f 7/6/3 9/5/3 12/7/3 10/8/3
f 10/8/4 12/7/4 15/9/4 13/10/4
f 13/10/5 15/9/5 18/11/5 16/12/5
f 16/12/6 18/11/6 20/13/6 19/14/6
f 25/15/7 9/16/7 6/17/7 3/18/7 22/19/7 20/20/7 27/21/7 23/22/7 24/23/7
f 27/21/7 20/20/7 18/24/7 15/25/7 12/26/7 9/16/7 25/15/7 28/27/7 26/28/7
f 19/14/8 20/13/8 22/29/8 21/30/8
f 21/30/9 22/29/9 3/31/9 1/32/9
f 21/33/10 1/34/10 4/35/10 7/36/10 10/37/10 13/38/10 16/39/10 19/40/10
usemtl Blue
f 2/41/11 5/42/11 25/43/11 24/44/11
f 5/42/8 8/45/8 28/46/8 25/43/8
f 8/45/12 11/47/12 26/48/12 28/46/12
f 26/48/13 11/47/13 14/49/13 27/50/13
f 27/50/3 14/49/3 17/51/3 23/52/3
f 23/52/14 17/51/14 2/53/14 24/54/14
f 5/55/7 2/56/7 17/57/7 14/58/7 11/59/7 8/60/7
