# Blender v3.4.1 OBJ File: 'Key_Caps_and_Bottles.blend'
# www.blender.org
mtllib Key_cylinder_cap.mtl
o Cap_Cylinder.001
v 0.000000 -0.038000 -0.038000
v 0.000000 0.038000 -0.038000
v 0.007413 -0.038000 -0.037270
v 0.007413 0.038000 -0.037270
v 0.014542 -0.038000 -0.035107
v 0.014542 0.038000 -0.035107
v 0.021112 -0.038000 -0.031596
v 0.021112 0.038000 -0.031596
v 0.026870 -0.038000 -0.026870
v 0.026870 0.038000 -0.026870
v 0.031596 -0.038000 -0.021112
v 0.031596 0.038000 -0.021112
v 0.035107 -0.038000 -0.014542
v 0.035107 0.038000 -0.014542
v 0.037270 -0.038000 -0.007413
v 0.037270 0.038000 -0.007413
v 0.038000 -0.038000 0.000000
v 0.038000 0.038000 0.000000
v 0.037270 -0.038000 0.007413
v 0.037270 0.038000 0.007413
v 0.035107 -0.038000 0.014542
v 0.035107 0.038000 0.014542
v 0.031596 -0.038000 0.021112
v 0.031596 0.038000 0.021112
v 0.026870 -0.038000 0.026870
v 0.026870 0.038000 0.026870
v 0.021112 -0.038000 0.031596
v 0.021112 0.038000 0.031596
v 0.014542 -0.038000 0.035107
v 0.014542 0.038000 0.035107
v 0.007413 -0.038000 0.037270
v 0.007413 0.038000 0.037270
v 0.000000 -0.038000 0.038000
v 0.000000 0.038000 0.038000
v -0.007413 -0.038000 0.037270
v -0.007413 0.038000 0.037270
v -0.014542 -0.038000 0.035107
v -0.014542 0.038000 0.035107
v -0.021112 -0.038000 0.031596
v -0.021112 0.038000 0.031596
v -0.026870 -0.038000 0.026870
v -0.026870 0.038000 0.026870
v -0.031596 -0.038000 0.021112
v -0.031596 0.038000 0.021112
v -0.035107 -0.038000 0.014542
v -0.035107 0.038000 0.014542
v -0.037270 -0.038000 0.007413
v -0.037270 0.038000 0.007413
v -0.038000 -0.038000 0.000000
v -0.038000 0.038000 0.000000
v -0.037270 -0.038000 -0.007413
v -0.037270 0.038000 -0.007413
v -0.035107 -0.038000 -0.014542
v -0.035107 0.038000 -0.014542
v -0.031596 -0.038000 -0.021112
v -0.031596 0.038000 -0.021112
v -0.026870 -0.038000 -0.026870
v -0.026870 0.038000 -0.026870
v -0.021112 -0.038000 -0.031596
v -0.021112 0.038000 -0.031596
v -0.014542 -0.038000 -0.035107
v -0.014542 0.038000 -0.035107
v -0.007413 -0.038000 -0.037270
v -0.007413 0.038000 -0.037270
v 0.004940 0.038000 0.016556
v -0.008645 0.038000 -0.005674
v 0.004940 0.060800 0.016556
v -0.008645 0.060800 -0.005674
v -0.004940 0.038000 0.016556
v -0.008479 0.038000 -0.007360
v -0.004940 0.060800 0.016556
v -0.008479 0.060800 -0.007360
v -0.007987 0.038000 -0.008982
v 0.004940 0.038000 -0.003204
v -0.007987 0.060800 -0.008982
v 0.004940 0.060800 -0.003204
v -0.007188 0.038000 -0.010476
v -0.004940 0.038000 -0.003204
v -0.007188 0.060800 -0.010476
v -0.004940 0.060800 -0.003204
v -0.006113 0.038000 -0.011787
v -0.006113 0.060800 -0.011787
v -0.004803 0.038000 -0.012862
v -0.004803 0.060800 -0.012862
v -0.003308 0.038000 -0.013661
v -0.003308 0.060800 -0.013661
v -0.001687 0.038000 -0.014152
v -0.001687 0.060800 -0.014152
v -0.000000 0.038000 -0.014319
v -0.000000 0.060800 -0.014319
v 0.001687 0.038000 -0.014152
v 0.001687 0.060800 -0.014152
v 0.003308 0.038000 -0.013661
v 0.003308 0.060800 -0.013661
v 0.004803 0.038000 -0.012862
v 0.004803 0.060800 -0.012862
v 0.006113 0.038000 -0.011787
v 0.006113 0.060800 -0.011787
v 0.007188 0.038000 -0.010476
v 0.007188 0.060800 -0.010476
v 0.007987 0.038000 -0.008982
v 0.007987 0.060800 -0.008982
v 0.008479 0.038000 -0.007360
v 0.008479 0.060800 -0.007360
v 0.008645 0.038000 -0.005674
v 0.008645 0.060800 -0.005674
v 0.008479 0.038000 -0.003987
v 0.008479 0.060800 -0.003987
v 0.007987 0.038000 -0.002365
v 0.007987 0.060800 -0.002365
v 0.007188 0.038000 -0.000871
v 0.007188 0.060800 -0.000871
v 0.006113 0.038000 0.000439
v 0.006113 0.060800 0.000439
v 0.004803 0.038000 0.001514
v 0.004803 0.060800 0.001514
v 0.003308 0.038000 0.002313
v 0.003308 0.060800 0.002313
v 0.001687 0.038000 0.002805
v 0.001687 0.060800 0.002805
v 0.000000 0.038000 0.002971
v 0.000000 0.060800 0.002971
v -0.001687 0.038000 0.002805
v -0.001687 0.060800 0.002805
v -0.003308 0.038000 0.002313
v -0.003308 0.060800 0.002313
v -0.004803 0.038000 0.001514
v -0.004803 0.060800 0.001514
v -0.006113 0.038000 0.000439
v -0.006113 0.060800 0.000439
v -0.007188 0.038000 -0.000871
v -0.007188 0.060800 -0.000871
v -0.007987 0.038000 -0.002365
v -0.007987 0.060800 -0.002365
v -0.008479 0.038000 -0.003987
v -0.008479 0.060800 -0.003987
v -0.004940 0.060800 0.001402
v -0.004940 0.038000 0.001402
v 0.004940 0.060800 0.001402
v 0.004940 0.038000 0.001402
v 0.001980 0.038000 0.002716
v -0.001980 0.060800 0.002716
v 0.002676 0.038000 0.001325
v -0.002375 0.060800 0.001927
vt 1.000000 0.500000
vt 1.000000 1.000000
vt 0.968750 1.000000
vt 0.968750 0.500000
vt 0.937500 1.000000
vt 0.937500 0.500000
vt 0.906250 1.000000
vt 0.906250 0.500000
vt 0.875000 1.000000
vt 0.875000 0.500000
vt 0.843750 1.000000
vt 0.843750 0.500000
vt 0.812500 1.000000
vt 0.812500 0.500000
vt 0.781250 1.000000
vt 0.781250 0.500000
vt 0.750000 1.000000
vt 0.750000 0.500000
vt 0.718750 1.000000
vt 0.718750 0.500000
vt 0.687500 1.000000
vt 0.687500 0.500000
vt 0.656250 1.000000
vt 0.656250 0.500000
vt 0.625000 1.000000
vt 0.625000 0.500000
vt 0.593750 1.000000
vt 0.593750 0.500000
vt 0.562500 1.000000
vt 0.562500 0.500000
vt 0.531250 1.000000
vt 0.531250 0.500000
vt 0.500000 1.000000
vt 0.500000 0.500000
vt 0.468750 1.000000
vt 0.468750 0.500000
vt 0.437500 1.000000
vt 0.437500 0.500000
vt 0.406250 1.000000
vt 0.406250 0.500000
vt 0.375000 1.000000
vt 0.375000 0.500000
vt 0.343750 1.000000
vt 0.343750 0.500000
vt 0.312500 1.000000
vt 0.312500 0.500000
vt 0.281250 1.000000
vt 0.281250 0.500000
vt 0.250000 1.000000
vt 0.250000 0.500000
vt 0.218750 1.000000
vt 0.218750 0.500000
vt 0.187500 1.000000
vt 0.187500 0.500000
vt 0.156250 1.000000
vt 0.156250 0.500000
vt 0.125000 1.000000
vt 0.125000 0.500000
vt 0.093750 1.000000
vt 0.093750 0.500000
vt 0.062500 1.000000
vt 0.062500 0.500000
vt 0.296822 0.485388
vt 0.250000 0.490000
vt 0.203178 0.485388
vt 0.158156 0.471731
vt 0.116663 0.449553
vt 0.080294 0.419706
vt 0.050447 0.383337
vt 0.028269 0.341844
vt 0.014612 0.296822
vt 0.010000 0.250000
vt 0.014612 0.203178
vt 0.028269 0.158156
vt 0.050447 0.116663
vt 0.080294 0.080294
vt 0.116663 0.050447
vt 0.158156 0.028269
vt 0.203178 0.014612
vt 0.250000 0.010000
vt 0.296822 0.014612
vt 0.341844 0.028269
vt 0.383337 0.050447
vt 0.419706 0.080294
vt 0.449553 0.116663
vt 0.471731 0.158156
vt 0.485388 0.203178
vt 0.490000 0.250000
vt 0.485388 0.296822
vt 0.471731 0.341844
vt 0.449553 0.383337
vt 0.419706 0.419706
vt 0.383337 0.449553
vt 0.341844 0.471731
vt 0.031250 1.000000
vt 0.031250 0.500000
vt 0.000000 1.000000
vt 0.000000 0.500000
vt 0.750000 0.490000
vt 0.796822 0.485388
vt 0.841844 0.471731
vt 0.883337 0.449553
vt 0.919706 0.419706
vt 0.949553 0.383337
vt 0.971731 0.341844
vt 0.985388 0.296822
vt 0.990000 0.250000
vt 0.985388 0.203178
vt 0.971731 0.158156
vt 0.949553 0.116663
vt 0.919706 0.080294
vt 0.883337 0.050447
vt 0.841844 0.028269
vt 0.796822 0.014612
vt 0.750000 0.010000
vt 0.703178 0.014612
vt 0.658156 0.028269
vt 0.616663 0.050447
vt 0.580294 0.080294
vt 0.550447 0.116663
vt 0.528269 0.158156
vt 0.514612 0.203178
vt 0.510000 0.250000
vt 0.514612 0.296822
vt 0.528269 0.341844
vt 0.550447 0.383337
vt 0.580294 0.419706
vt 0.616663 0.449553
vt 0.658156 0.471731
vt 0.703178 0.485388
vt 0.316732 0.750000
vt 0.125000 0.750000
vt 0.125000 0.500000
vt 0.316732 0.500000
vt 0.315308 0.503469
vt 0.305201 0.541288
vt 0.298977 0.582324
vt 0.296875 0.625000
vt 0.298977 0.667676
vt 0.300103 0.675103
vt 0.305201 0.708712
vt 0.315308 0.746531
vt 0.317708 0.692708
vt 0.375000 0.500000
vt 0.375000 0.750000
vt 0.553571 0.387143
vt 0.580294 0.419706
vt 0.616663 0.449553
vt 0.658156 0.471731
vt 0.703178 0.485388
vt 0.750000 0.490000
vt 0.796822 0.485388
vt 0.841844 0.471731
vt 0.883337 0.449553
vt 0.919706 0.419706
vt 0.949553 0.383337
vt 0.971731 0.341844
vt 0.985388 0.296822
vt 0.990000 0.250000
vt 0.985388 0.203178
vt 0.971731 0.158156
vt 0.949553 0.116663
vt 0.919706 0.080294
vt 0.883337 0.050447
vt 0.841844 0.028269
vt 0.796822 0.014612
vt 0.750000 0.010000
vt 0.703178 0.014612
vt 0.658156 0.028269
vt 0.616663 0.050447
vt 0.580294 0.080294
vt 0.553571 0.112857
vt 0.681429 0.112857
vt 0.681429 0.387143
vt 0.375000 0.000000
vt 0.625000 0.000000
vt 0.625000 0.250000
vt 0.375000 0.250000
vt 0.625000 0.441731
vt 0.375000 0.441731
vt 0.625000 0.808269
vt 0.625000 1.000000
vt 0.375000 1.000000
vt 0.375000 0.808269
vt 0.684692 0.503469
vt 0.683268 0.500000
vt 0.875000 0.500000
vt 0.875000 0.750000
vt 0.683268 0.750000
vt 0.684692 0.746531
vt 0.694799 0.708712
vt 0.701023 0.667676
vt 0.703125 0.625000
vt 0.701023 0.582324
vt 0.699897 0.574897
vt 0.694799 0.541288
vt 0.689908 0.564907
vt 0.625000 0.750000
vt 0.625000 0.500000
vt 1.000000 0.500000
vt 1.000000 1.000000
vt 0.968750 1.000000
vt 0.968750 0.500000
vt 0.937500 1.000000
vt 0.937500 0.500000
vt 0.906250 1.000000
vt 0.906250 0.500000
vt 0.875000 1.000000
vt 0.875000 0.500000
vt 0.843750 1.000000
vt 0.843750 0.500000
vt 0.812500 1.000000
vt 0.812500 0.500000
vt 0.781250 1.000000
vt 0.781250 0.500000
vt 0.750000 1.000000
vt 0.750000 0.500000
vt 0.718750 1.000000
vt 0.718750 0.500000
vt 0.687500 1.000000
vt 0.687500 0.500000
vt 0.656250 1.000000
vt 0.656250 0.500000
vt 0.625000 1.000000
vt 0.625000 0.500000
vt 0.593750 1.000000
vt 0.593750 0.500000
vt 0.562500 1.000000
vt 0.562500 0.500000
vt 0.531250 1.000000
vt 0.531250 0.500000
vt 0.500000 1.000000
vt 0.500000 0.500000
vt 0.468750 1.000000
vt 0.468750 0.500000
vt 0.437500 1.000000
vt 0.437500 0.500000
vt 0.406250 1.000000
vt 0.406250 0.500000
vt 0.375000 1.000000
vt 0.375000 0.500000
vt 0.347020 1.000000
vt 0.347020 0.500000
vt 0.152980 1.000000
vt 0.125000 1.000000
vt 0.125000 0.500000
vt 0.152980 0.500000
vt 0.093750 1.000000
vt 0.093750 0.500000
vt 0.062500 1.000000
vt 0.062500 0.500000
vt 0.053571 0.112857
vt 0.080294 0.080294
vt 0.116663 0.050447
vt 0.158156 0.028269
vt 0.203178 0.014612
vt 0.250000 0.010000
vt 0.296822 0.014612
vt 0.341844 0.028269
vt 0.383337 0.050447
vt 0.419706 0.080294
vt 0.449553 0.116663
vt 0.471731 0.158156
vt 0.485388 0.203178
vt 0.490000 0.250000
vt 0.485388 0.296822
vt 0.471731 0.341844
vt 0.449553 0.383337
vt 0.419706 0.419706
vt 0.383337 0.449553
vt 0.341844 0.471731
vt 0.296822 0.485388
vt 0.250000 0.490000
vt 0.203178 0.485388
vt 0.158156 0.471731
vt 0.116663 0.449553
vt 0.080294 0.419706
vt 0.053571 0.387143
vt 0.181429 0.387143
vt 0.181429 0.112857
vt 0.031250 1.000000
vt 0.031250 0.500000
vt 0.000000 1.000000
vt 0.000000 0.500000
vn 0.0980 0.0000 -0.9952
vn 0.2903 0.0000 -0.9569
vn 0.4714 0.0000 -0.8819
vn 0.6344 0.0000 -0.7730
vn 0.7730 0.0000 -0.6344
vn 0.8819 0.0000 -0.4714
vn 0.9569 0.0000 -0.2903
vn 0.9952 0.0000 -0.0980
vn 0.9952 0.0000 0.0980
vn 0.9569 0.0000 0.2903
vn 0.8819 0.0000 0.4714
vn 0.7730 0.0000 0.6344
vn 0.6344 0.0000 0.7730
vn 0.4714 0.0000 0.8819
vn 0.2903 0.0000 0.9569
vn 0.0980 0.0000 0.9952
vn -0.0980 0.0000 0.9952
vn -0.2903 0.0000 0.9569
vn -0.4714 0.0000 0.8819
vn -0.6344 0.0000 0.7730
vn -0.7730 0.0000 0.6344
vn -0.8819 0.0000 0.4714
vn -0.9569 0.0000 0.2903
vn -0.9952 0.0000 0.0980
vn -0.9952 0.0000 -0.0980
vn -0.9569 0.0000 -0.2903
vn -0.8819 0.0000 -0.4714
vn -0.7730 0.0000 -0.6344
vn -0.6344 0.0000 -0.7730
vn -0.4714 0.0000 -0.8819
vn 0.0000 1.0000 0.0000
vn -0.2903 0.0000 -0.9569
vn -0.0980 0.0000 -0.9952
vn 0.0000 -1.0000 -0.0000
vn 0.0000 0.0000 1.0000
vn -1.0000 0.0000 0.0000
vn 1.0000 0.0000 -0.0000
usemtl Red
s off
f 1/1/1 2/2/1 4/3/1 3/4/1
f 3/4/2 4/3/2 6/5/2 5/6/2
f 5/6/3 6/5/3 8/7/3 7/8/3
f 7/8/4 8/7/4 10/9/4 9/10/4
f 9/10/5 10/9/5 12/11/5 11/12/5
f 11/12/6 12/11/6 14/13/6 13/14/6
f 13/14/7 14/13/7 16/15/7 15/16/7
f 15/16/8 16/15/8 18/17/8 17/18/8
f 17/18/9 18/17/9 20/19/9 19/20/9
f 19/20/10 20/19/10 22/21/10 21/22/10
f 21/22/11 22/21/11 24/23/11 23/24/11
f 23/24/12 24/23/12 26/25/12 25/26/12
f 25/26/13 26/25/13 28/27/13 27/28/13
f 27/28/14 28/27/14 30/29/14 29/30/14
f 29/30/15 30/29/15 32/31/15 31/32/15
f 31/32/16 32/31/16 34/33/16 33/34/16
f 33/34/17 34/33/17 36/35/17 35/36/17
f 35/36/18 36/35/18 38/37/18 37/38/18
f 37/38/19 38/37/19 40/39/19 39/40/19
f 39/40/20 40/39/20 42/41/20 41/42/20
f 41/42/21 42/41/21 44/43/21 43/44/21
f 43/44/22 44/43/22 46/45/22 45/46/22
f 45/46/23 46/45/23 48/47/23 47/48/23
f 47/48/24 48/47/24 50/49/24 49/50/24
f 49/50/25 50/49/25 52/51/25 51/52/25
f 51/52/26 52/51/26 54/53/26 53/54/26
f 53/54/27 54/53/27 56/55/27 55/56/27
f 55/56/28 56/55/28 58/57/28 57/58/28
f 57/58/29 58/57/29 60/59/29 59/60/29
f 59/60/30 60/59/30 62/61/30 61/62/30
f 4/63/31 2/64/31 64/65/31 62/66/31 60/67/31 58/68/31 56/69/31 54/70/31 52/71/31 50/72/31 48/73/31 46/74/31 44/75/31 42/76/31 40/77/31 38/78/31 36/79/31 34/80/31 32/81/31 30/82/31 28/83/31 26/84/31 24/85/31 22/86/31 20/87/31 18/88/31 16/89/31 14/90/31 12/91/31 10/92/31 8/93/31 6/94/31
f 61/62/32 62/61/32 64/95/32 63/96/32
f 63/96/33 64/95/33 2/97/33 1/98/33
f 1/99/34 3/100/34 5/101/34 7/102/34 9/103/34 11/104/34 13/105/34 15/106/34 17/107/34 19/108/34 21/109/34 23/110/34 25/111/34 27/112/34 29/113/34 31/114/34 33/115/34 35/116/34 37/117/34 39/118/34 41/119/34 43/120/34 45/121/34 47/122/34 49/123/34 51/124/34 53/125/34 55/126/34 57/127/34 59/128/34 61/129/34 63/130/34
f 140/131/34 65/132/34 69/133/34 138/134/34 127/135/34 125/136/34 123/137/34 121/138/34 119/139/34 141/140/34 117/141/34 115/142/34
f 119/139/34 143/143/34 141/140/34
f 140/131/34 115/142/34 117/141/34 141/140/34 143/143/34 119/139/34 121/138/34 123/137/34 125/136/34 127/135/34 138/134/34 78/144/34 74/145/34
f 138/146/34 129/147/34 131/148/34 133/149/34 135/150/34 66/151/34 70/152/34 73/153/34 77/154/34 81/155/34 83/156/34 85/157/34 87/158/34 89/159/34 91/160/34 93/161/34 95/162/34 97/163/34 99/164/34 101/165/34 103/166/34 105/167/34 107/168/34 109/169/34 111/170/34 113/171/34 140/172/34 74/173/34 78/174/34
usemtl Blue
f 65/175/35 67/176/35 71/177/35 69/178/35
f 69/178/36 71/177/36 137/179/36 138/180/36
f 139/181/37 67/182/37 65/183/37 140/184/37
f 128/185/31 137/186/31 71/187/31 67/188/31 139/189/31 116/190/31 118/191/31 120/192/31 122/193/31 124/194/31 142/195/31 126/196/31
f 144/197/31 126/196/31 142/195/31
f 137/186/31 128/185/31 126/196/31 144/197/31 142/195/31 124/194/31 122/193/31 120/192/31 118/191/31 116/190/31 139/189/31 76/198/31 80/199/31
f 66/200/25 68/201/25 72/202/25 70/203/25
f 70/203/26 72/202/26 75/204/26 73/205/26
f 73/205/27 75/204/27 79/206/27 77/207/27
f 77/207/28 79/206/28 82/208/28 81/209/28
f 81/209/29 82/208/29 84/210/29 83/211/29
f 83/211/30 84/210/30 86/212/30 85/213/30
f 85/213/32 86/212/32 88/214/32 87/215/32
f 87/215/33 88/214/33 90/216/33 89/217/33
f 89/217/1 90/216/1 92/218/1 91/219/1
f 91/219/2 92/218/2 94/220/2 93/221/2
f 93/221/3 94/220/3 96/222/3 95/223/3
f 95/223/4 96/222/4 98/224/4 97/225/4
f 97/225/5 98/224/5 100/226/5 99/227/5
f 99/227/6 100/226/6 102/228/6 101/229/6
f 101/229/7 102/228/7 104/230/7 103/231/7
f 103/231/8 104/230/8 106/232/8 105/233/8
f 105/233/9 106/232/9 108/234/9 107/235/9
f 107/235/10 108/234/10 110/236/10 109/237/10
f 109/237/11 110/236/11 112/238/11 111/239/11
f 111/239/12 112/238/12 114/240/12 113/241/12
f 113/241/13 114/240/13 139/242/13 140/243/13
f 137/244/20 130/245/20 129/246/20 138/247/20
f 129/246/21 130/245/21 132/248/21 131/249/21
f 131/249/22 132/248/22 134/250/22 133/251/22
f 139/252/31 114/253/31 112/254/31 110/255/31 108/256/31 106/257/31 104/258/31 102/259/31 100/260/31 98/261/31 96/262/31 94/263/31 92/264/31 90/265/31 88/266/31 86/267/31 84/268/31 82/269/31 79/270/31 75/271/31 72/272/31 68/273/31 136/274/31 134/275/31 132/276/31 130/277/31 137/278/31 80/279/31 76/280/31
f 133/251/23 134/250/23 136/281/23 135/282/23
f 135/282/24 136/281/24 68/283/24 66/284/24
