# Blender v3.4.1 OBJ File: 'Line_Caps_and_Bottles.blend'
# www.blender.org
mtllib Line_octagonal_bottle.mtl
o Bottle_Cylinder
v -0.014542 -0.038000 -0.035107
v -0.023275 0.011400 0.010925
v -0.014542 0.038000 -0.035107
v 0.014542 -0.038000 -0.035107
v -0.023275 0.011400 -0.010925
v 0.014542 0.038000 -0.035107
v 0.035107 -0.038000 -0.014542
v 0.023275 0.011400 0.010925
v 0.035107 0.038000 -0.014542
v 0.035107 -0.038000 0.014542
v 0.023275 0.011400 -0.010925
v 0.035107 0.038000 0.014542
v 0.014542 -0.038000 0.035107
v 0.014542 0.038000 0.035107
v -0.014542 -0.038000 0.035107
v -0.014542 0.038000 0.035107
v -0.035107 -0.038000 0.014542
v -0.035107 0.038000 0.014542
v -0.035107 -0.038000 -0.014542
v -0.035107 0.038000 -0.014542
v -0.023275 0.038000 -0.010925
v 0.023275 0.038000 -0.010925
v -0.023275 0.038000 0.010925
v 0.023275 0.038000 0.010925
vt 1.000000 0.500000
vt 1.000000 1.000000
vt 0.875000 1.000000
vt 0.875000 0.500000
vt 0.750000 1.000000
vt 0.750000 0.500000
vt 0.625000 1.000000
vt 0.625000 0.500000
vt 0.500000 1.000000
vt 0.500000 0.500000
vt 0.375000 1.000000
vt 0.375000 0.500000
vt 0.250000 1.000000
vt 0.250000 0.500000
vt 0.412215 0.257493
vt 0.490000 0.250000
vt 0.419706 0.419706
vt 0.250000 0.490000
vt 0.080294 0.419706
vt 0.010000 0.250000
vt 0.087785 0.242507
vt 0.140595 0.370002
vt 0.080294 0.080294
vt 0.250000 0.010000
vt 0.419706 0.080294
vt 0.359405 0.129998
vt 0.125000 1.000000
vt 0.125000 0.500000
vt 0.000000 1.000000
vt 0.000000 0.500000
vt 0.580294 0.419706
vt 0.750000 0.490000
vt 0.919706 0.419706
vt 0.990000 0.250000
vt 0.919706 0.080294
vt 0.750000 0.010000
vt 0.580294 0.080294
vt 0.510000 0.250000
vt 0.593750 0.000000
vt 0.375000 0.000000
vt 0.375000 0.250000
vt 0.593750 0.250000
vt 0.375000 0.500000
vt 0.593750 0.500000
vt 0.375000 0.750000
vt 0.593750 0.750000
vt 0.375000 1.000000
vt 0.593750 1.000000
vt 0.125000 0.500000
vt 0.125000 0.750000
vn -0.0000 0.0000 -1.0000
vn 0.7071 0.0000 -0.7071
vn 1.0000 0.0000 -0.0000
vn 0.7071 0.0000 0.7071
vn 0.0000 0.0000 1.0000
vn -0.7071 0.0000 0.7071
vn 0.0000 1.0000 0.0000
vn -1.0000 0.0000 0.0000
vn -0.7071 0.0000 -0.7071
vn 0.0000 -1.0000 0.0000
usemtl Red
s off
f 1/1/1 3/2/1 6/3/1 4/4/1
f 4/4/2 6/3/2 9/5/2 7/6/2
f 7/6/3 9/5/3 12/7/3 10/8/3
f 10/8/4 12/7/4 14/9/4 13/10/4
f 13/10/5 14/9/5 16/11/5 15/12/5
f 15/12/6 16/11/6 18/13/6 17/14/6
f 22/15/7 9/16/7 6/17/7 3/18/7 20/19/7 18/20/7 23/21/7 21/22/7
f 23/21/7 18/20/7 16/23/7 14/24/7 12/25/7 9/16/7 22/15/7 24/26/7
f 17/14/8 18/13/8 20/27/8 19/28/8
f 19/28/9 20/27/9 3/29/9 1/30/9
f 19/31/10 1/32/10 4/33/10 7/34/10 10/35/10 13/36/10 15/37/10 17/38/10
usemtl Blue
f 23/39/3 2/40/3 5/41/3 21/42/3
f 21/42/5 5/41/5 11/43/5 22/44/5
f 11/43/8 8/45/8 24/46/8 22/44/8
f 8/45/1 2/47/1 23/48/1 24/46/1
f 5/49/7 2/50/7 8/45/7 11/43/7
