# Blender v3.4.1 OBJ File: 'Line_Caps_and_Bottles.blend'
# www.blender.org
mtllib Line_octagonal-thin_cap.mtl
o Cap_Cylinder
v -0.008725 -0.038000 -0.021064
v -0.008725 0.038000 -0.021064
v 0.008725 -0.038000 -0.021064
v 0.008725 0.038000 -0.021064
v 0.021064 -0.038000 -0.008725
v 0.021064 0.038000 -0.008725
v 0.021064 -0.038000 0.008725
v 0.021064 0.038000 0.008725
v 0.008725 -0.038000 0.021064
v 0.008725 0.038000 0.021064
v -0.008725 -0.038000 0.021064
v -0.008725 0.038000 0.021064
v -0.021064 -0.038000 0.008725
v -0.021064 0.038000 0.008725
v -0.021064 -0.038000 -0.008725
v -0.021064 0.038000 -0.008725
v -0.018525 0.038000 0.006175
v -0.018525 0.060800 0.006175
v -0.018525 0.038000 -0.006175
v -0.018525 0.060800 -0.006175
v 0.018525 0.038000 0.006175
v 0.018525 0.060800 0.006175
v 0.018525 0.038000 -0.006175
v 0.018525 0.060800 -0.006175
vt 1.000000 0.500000
vt 1.000000 1.000000
vt 0.875000 1.000000
vt 0.875000 0.500000
vt 0.750000 1.000000
vt 0.750000 0.500000
vt 0.625000 1.000000
vt 0.625000 0.500000
vt 0.500000 1.000000
vt 0.500000 0.500000
vt 0.375000 1.000000
vt 0.375000 0.500000
vt 0.250000 1.000000
vt 0.250000 0.500000
vt 0.419706 0.419706
vt 0.250000 0.490000
vt 0.080294 0.419706
vt 0.010000 0.250000
vt 0.080294 0.080294
vt 0.250000 0.010000
vt 0.419706 0.080294
vt 0.490000 0.250000
vt 0.125000 1.000000
vt 0.125000 0.500000
vt 0.000000 1.000000
vt 0.000000 0.500000
vt 0.750000 0.490000
vt 0.919706 0.419706
vt 0.990000 0.250000
vt 0.919706 0.080294
vt 0.750000 0.010000
vt 0.580294 0.080294
vt 0.510000 0.250000
vt 0.580294 0.419706
vt 0.125000 0.500000
vt 0.375000 0.500000
vt 0.375000 0.750000
vt 0.125000 0.750000
vt 0.375000 0.000000
vt 0.625000 0.000000
vt 0.625000 0.250000
vt 0.375000 0.250000
vt 0.625000 0.500000
vt 0.625000 0.750000
vt 0.625000 1.000000
vt 0.375000 1.000000
vt 0.875000 0.500000
vt 0.875000 0.750000
vn 0.0000 0.0000 -1.0000
vn 0.7071 0.0000 -0.7071
vn 1.0000 0.0000 0.0000
vn 0.7071 0.0000 0.7071
vn 0.0000 0.0000 1.0000
vn -0.7071 0.0000 0.7071
vn 0.0000 1.0000 0.0000
vn -1.0000 0.0000 0.0000
vn -0.7071 0.0000 -0.7071
vn 0.0000 -1.0000 -0.0000
usemtl Red
s off
f 1/1/1 2/2/1 4/3/1 3/4/1
f 3/4/2 4/3/2 6/5/2 5/6/2
f 5/6/3 6/5/3 8/7/3 7/8/3
f 7/8/4 8/7/4 10/9/4 9/10/4
f 9/10/5 10/9/5 12/11/5 11/12/5
f 11/12/6 12/11/6 14/13/6 13/14/6
f 4/15/7 2/16/7 16/17/7 14/18/7 12/19/7 10/20/7 8/21/7 6/22/7
f 13/14/8 14/13/8 16/23/8 15/24/8
f 15/24/9 16/23/9 2/25/9 1/26/9
f 1/27/10 3/28/10 5/29/10 7/30/10 9/31/10 11/32/10 13/33/10 15/34/10
f 19/35/10 23/36/10 21/37/10 17/38/10
usemtl Blue
f 17/39/8 18/40/8 20/41/8 19/42/8
f 19/42/1 20/41/1 24/43/1 23/36/1
f 23/36/3 24/43/3 22/44/3 21/37/3
f 21/37/5 22/44/5 18/45/5 17/46/5
f 24/43/7 20/47/7 18/48/7 22/44/7
