# Blender v3.4.1 OBJ File: 'Pentagon_Caps_and_Bottles.blend'
# www.blender.org
mtllib Pentagon_octagonal_bottle.mtl
o Bottle_Cylinder
v -0.014542 -0.038000 -0.035107
v -0.006981 0.011400 -0.021486
v -0.014542 0.038000 -0.035107
v 0.014542 -0.038000 -0.035107
v 0.017982 0.011400 -0.013183
v 0.014542 0.038000 -0.035107
v 0.035107 -0.038000 -0.014542
v 0.018095 0.011400 0.013338
v 0.035107 0.038000 -0.014542
v 0.035107 -0.038000 0.014542
v -0.006799 0.011400 0.021427
v 0.035107 0.038000 0.014542
v 0.014542 -0.038000 0.035107
v -0.022296 0.011400 -0.000096
v 0.014542 0.038000 0.035107
v -0.014542 -0.038000 0.035107
v -0.014542 0.038000 0.035107
v -0.035107 -0.038000 0.014542
v -0.035107 0.038000 0.014542
v -0.035107 -0.038000 -0.014542
v -0.035107 0.038000 -0.014542
v -0.022296 0.038000 -0.000096
v -0.006981 0.038000 -0.021486
v 0.017982 0.038000 -0.013183
v -0.006799 0.038000 0.021427
v 0.018095 0.038000 0.013338
vt 1.000000 0.500000
vt 1.000000 1.000000
vt 0.875000 1.000000
vt 0.875000 0.500000
vt 0.750000 1.000000
vt 0.750000 0.500000
vt 0.625000 1.000000
vt 0.625000 0.500000
vt 0.500000 1.000000
vt 0.500000 0.500000
vt 0.375000 1.000000
vt 0.375000 0.500000
vt 0.250000 1.000000
vt 0.250000 0.500000
vt 0.386787 0.283463
vt 0.490000 0.250000
vt 0.419706 0.419706
vt 0.250000 0.490000
vt 0.261195 0.392245
vt 0.080294 0.419706
vt 0.010000 0.250000
vt 0.080294 0.080294
vt 0.250000 0.010000
vt 0.419706 0.080294
vt 0.323344 0.128436
vt 0.158542 0.141406
vt 0.120132 0.304449
vt 0.125000 1.000000
vt 0.125000 0.500000
vt 0.000000 1.000000
vt 0.000000 0.500000
vt 0.580294 0.419706
vt 0.750000 0.490000
vt 0.919706 0.419706
vt 0.990000 0.250000
vt 0.919706 0.080294
vt 0.750000 0.010000
vt 0.580294 0.080294
vt 0.510000 0.250000
vt 1.000000 0.937500
vt 1.000000 0.500000
vt 0.800000 0.500000
vt 0.800000 0.937500
vt 0.600000 0.500000
vt 0.600000 0.937500
vt 0.400000 0.500000
vt 0.400000 0.937500
vt 0.200000 0.500000
vt 0.200000 0.937500
vt 0.000000 0.500000
vt 0.000000 0.937500
vt 0.978254 0.324164
vt 0.750000 0.490000
vt 0.521746 0.324164
vt 0.608932 0.055836
vt 0.891068 0.055836
vn -0.0000 0.0000 -1.0000
vn 0.7071 0.0000 -0.7071
vn 1.0000 0.0000 -0.0000
vn 0.7071 0.0000 0.7071
vn 0.0000 0.0000 1.0000
vn -0.7071 0.0000 0.7071
vn 0.0000 1.0000 -0.0000
vn -1.0000 0.0000 0.0000
vn -0.7071 0.0000 -0.7071
vn 0.0000 -1.0000 0.0000
vn -0.3156 0.0000 0.9489
vn -1.0000 0.0000 0.0043
vn -0.3090 0.0000 -0.9511
vn 0.8115 0.0000 -0.5843
vn 0.8131 0.0000 0.5822
usemtl Red
s off
f 1/1/1 3/2/1 6/3/1 4/4/1
f 4/4/2 6/3/2 9/5/2 7/6/2
f 7/6/3 9/5/3 12/7/3 10/8/3
f 10/8/4 12/7/4 15/9/4 13/10/4
f 13/10/5 15/9/5 17/11/5 16/12/5
f 16/12/6 17/11/6 19/13/6 18/14/6
f 24/15/7 9/16/7 6/17/7 3/18/7 23/19/7
f 23/19/7 3/18/7 21/20/7 19/21/7 17/22/7 15/23/7 12/24/7 9/16/7 24/15/7 26/25/7 25/26/7 22/27/7
f 18/14/8 19/13/8 21/28/8 20/29/8
f 20/29/9 21/28/9 3/30/9 1/31/9
f 20/32/10 1/33/10 4/34/10 7/35/10 10/36/10 13/37/10 16/38/10 18/39/10
usemtl Blue
f 23/40/11 2/41/11 5/42/11 24/43/11
f 5/42/12 8/44/12 26/45/12 24/43/12
f 8/44/13 11/46/13 25/47/13 26/45/13
f 25/47/14 11/46/14 14/48/14 22/49/14
f 22/49/15 14/48/15 2/50/15 23/51/15
f 5/52/7 2/53/7 14/54/7 11/55/7 8/56/7
