# Blender v3.4.1 OBJ File: 'Pentagon_Caps_and_Bottles.blend'
# www.blender.org
mtllib Pentagon_octagonal_cap.mtl
o Cap_Cylinder.001
v -0.014542 -0.038000 -0.035107
v -0.014542 0.038000 -0.035107
v 0.014542 -0.038000 -0.035107
v 0.014542 0.038000 -0.035107
v 0.035107 -0.038000 -0.014542
v 0.035107 0.038000 -0.014542
v 0.035107 -0.038000 0.014542
v 0.035107 0.038000 0.014542
v 0.014542 -0.038000 0.035107
v 0.014542 0.038000 0.035107
v -0.014542 -0.038000 0.035107
v -0.014542 0.038000 0.035107
v -0.035107 -0.038000 0.014542
v -0.035107 0.038000 0.014542
v -0.035107 -0.038000 -0.014542
v -0.035107 0.038000 -0.014542
v -0.005358 0.038000 -0.016492
v -0.005358 0.060800 -0.016492
v 0.013966 0.038000 -0.010172
v 0.013966 0.060800 -0.010172
v 0.013990 0.038000 0.010205
v 0.013990 0.060800 0.010205
v -0.005320 0.038000 0.016479
v -0.005320 0.060800 0.016479
v -0.017277 0.038000 -0.000020
v -0.017277 0.060800 -0.000020
vt 1.000000 0.500000
vt 1.000000 1.000000
vt 0.875000 1.000000
vt 0.875000 0.500000
vt 0.750000 1.000000
vt 0.750000 0.500000
vt 0.625000 1.000000
vt 0.625000 0.500000
vt 0.500000 1.000000
vt 0.500000 0.500000
vt 0.375000 1.000000
vt 0.375000 0.500000
vt 0.250000 1.000000
vt 0.250000 0.500000
vt 0.419706 0.419706
vt 0.250000 0.490000
vt 0.080294 0.419706
vt 0.010000 0.250000
vt 0.080294 0.080294
vt 0.250000 0.010000
vt 0.419706 0.080294
vt 0.490000 0.250000
vt 0.125000 1.000000
vt 0.125000 0.500000
vt 0.000000 1.000000
vt 0.000000 0.500000
vt 0.750000 0.490000
vt 0.919706 0.419706
vt 0.990000 0.250000
vt 0.919706 0.080294
vt 0.750000 0.010000
vt 0.580294 0.080294
vt 0.510000 0.250000
vt 0.580294 0.419706
vt 0.750000 0.490000
vt 0.978254 0.324164
vt 0.891068 0.055836
vt 0.608932 0.055836
vt 0.521746 0.324164
vt 1.000000 0.500000
vt 1.000000 1.000000
vt 0.800000 1.000000
vt 0.800000 0.500000
vt 0.600000 1.000000
vt 0.600000 0.500000
vt 0.400000 1.000000
vt 0.400000 0.500000
vt 0.478254 0.324164
vt 0.250000 0.490000
vt 0.021746 0.324164
vt 0.108932 0.055836
vt 0.391068 0.055836
vt 0.200000 1.000000
vt 0.200000 0.500000
vt 0.000000 1.000000
vt 0.000000 0.500000
vn -0.0000 0.0000 -1.0000
vn 0.7071 0.0000 -0.7071
vn 1.0000 0.0000 -0.0000
vn 0.7071 0.0000 0.7071
vn 0.0000 0.0000 1.0000
vn -0.7071 0.0000 0.7071
vn 0.0000 1.0000 -0.0000
vn -1.0000 0.0000 0.0000
vn -0.7071 0.0000 -0.7071
vn 0.0000 -1.0000 -0.0000
vn 0.3108 0.0000 -0.9505
vn 1.0000 0.0000 -0.0012
vn 0.3090 0.0000 0.9511
vn -0.8097 0.0000 0.5868
vn -0.8101 0.0000 -0.5862
usemtl Red
s off
f 1/1/1 2/2/1 4/3/1 3/4/1
f 3/4/2 4/3/2 6/5/2 5/6/2
f 5/6/3 6/5/3 8/7/3 7/8/3
f 7/8/4 8/7/4 10/9/4 9/10/4
f 9/10/5 10/9/5 12/11/5 11/12/5
f 11/12/6 12/11/6 14/13/6 13/14/6
f 4/15/7 2/16/7 16/17/7 14/18/7 12/19/7 10/20/7 8/21/7 6/22/7
f 13/14/8 14/13/8 16/23/8 15/24/8
f 15/24/9 16/23/9 2/25/9 1/26/9
f 1/27/10 3/28/10 5/29/10 7/30/10 9/31/10 11/32/10 13/33/10 15/34/10
f 17/35/10 19/36/10 21/37/10 23/38/10 25/39/10
usemtl Blue
f 17/40/11 18/41/11 20/42/11 19/43/11
f 19/43/12 20/42/12 22/44/12 21/45/12
f 21/45/13 22/44/13 24/46/13 23/47/13
f 20/48/7 18/49/7 26/50/7 24/51/7 22/52/7
f 23/47/14 24/46/14 26/53/14 25/54/14
f 25/54/15 26/53/15 18/55/15 17/56/15
