# Blender v3.4.1 OBJ File: 'Pentagon_Caps_and_Bottles.blend'
# www.blender.org
mtllib Pentagon_cylinder_bottle.mtl
o Bottle_Cylinder
v 0.000000 -0.038000 -0.038000
v -0.006981 0.011400 -0.021486
v 0.000000 0.038000 -0.038000
v 0.007413 -0.038000 -0.037270
v 0.017982 0.011400 -0.013183
v 0.007413 0.038000 -0.037270
v 0.014542 -0.038000 -0.035107
v 0.018095 0.011400 0.013338
v 0.014542 0.038000 -0.035107
v 0.021112 -0.038000 -0.031596
v -0.006799 0.011400 0.021427
v 0.021112 0.038000 -0.031596
v -0.022296 0.011400 -0.000096
v 0.026870 -0.038000 -0.026870
v 0.026870 0.038000 -0.026870
v 0.031596 -0.038000 -0.021112
v 0.031596 0.038000 -0.021112
v 0.035107 -0.038000 -0.014542
v 0.035107 0.038000 -0.014542
v 0.037270 -0.038000 -0.007413
v 0.037270 0.038000 -0.007413
v 0.038000 -0.038000 0.000000
v 0.038000 0.038000 0.000000
v 0.037270 -0.038000 0.007413
v 0.037270 0.038000 0.007413
v 0.035107 -0.038000 0.014542
v 0.035107 0.038000 0.014542
v 0.031596 -0.038000 0.021112
v 0.031596 0.038000 0.021112
v 0.026870 -0.038000 0.026870
v 0.026870 0.038000 0.026870
v 0.021112 -0.038000 0.031596
v 0.021112 0.038000 0.031596
v 0.014542 -0.038000 0.035107
v 0.014542 0.038000 0.035107
v 0.007413 -0.038000 0.037270
v 0.007413 0.038000 0.037270
v 0.000000 -0.038000 0.038000
v 0.000000 0.038000 0.038000
v -0.007413 -0.038000 0.037270
v -0.007413 0.038000 0.037270
v -0.014542 -0.038000 0.035107
v -0.014542 0.038000 0.035107
v -0.021112 -0.038000 0.031596
v -0.021112 0.038000 0.031596
v -0.026870 -0.038000 0.026870
v -0.026870 0.038000 0.026870
v -0.031596 -0.038000 0.021112
v -0.031596 0.038000 0.021112
v -0.035107 -0.038000 0.014542
v -0.035107 0.038000 0.014542
v -0.037270 -0.038000 0.007413
v -0.037270 0.038000 0.007413
v -0.038000 -0.038000 0.000000
v -0.038000 0.038000 0.000000
v -0.037270 -0.038000 -0.007413
v -0.037270 0.038000 -0.007413
v -0.035107 -0.038000 -0.014542
v -0.035107 0.038000 -0.014542
v -0.031596 -0.038000 -0.021112
v -0.031596 0.038000 -0.021112
v -0.026870 -0.038000 -0.026870
v -0.026870 0.038000 -0.026870
v -0.021112 -0.038000 -0.031596
v -0.021112 0.038000 -0.031596
v -0.014542 -0.038000 -0.035107
v -0.014542 0.038000 -0.035107
v -0.007413 -0.038000 -0.037270
v -0.007413 0.038000 -0.037270
v -0.022296 0.038000 -0.000096
v -0.006981 0.038000 -0.021486
v -0.006799 0.038000 0.021427
v 0.017982 0.038000 -0.013183
v 0.018095 0.038000 0.013338
vt 1.000000 0.500000
vt 1.000000 1.000000
vt 0.968750 1.000000
vt 0.968750 0.500000
vt 0.937500 1.000000
vt 0.937500 0.500000
vt 0.906250 1.000000
vt 0.906250 0.500000
vt 0.875000 1.000000
vt 0.875000 0.500000
vt 0.843750 1.000000
vt 0.843750 0.500000
vt 0.812500 1.000000
vt 0.812500 0.500000
vt 0.781250 1.000000
vt 0.781250 0.500000
vt 0.750000 1.000000
vt 0.750000 0.500000
vt 0.718750 1.000000
vt 0.718750 0.500000
vt 0.687500 1.000000
vt 0.687500 0.500000
vt 0.656250 1.000000
vt 0.656250 0.500000
vt 0.625000 1.000000
vt 0.625000 0.500000
vt 0.593750 1.000000
vt 0.593750 0.500000
vt 0.562500 1.000000
vt 0.562500 0.500000
vt 0.531250 1.000000
vt 0.531250 0.500000
vt 0.500000 1.000000
vt 0.500000 0.500000
vt 0.468750 1.000000
vt 0.468750 0.500000
vt 0.437500 1.000000
vt 0.437500 0.500000
vt 0.406250 1.000000
vt 0.406250 0.500000
vt 0.375000 1.000000
vt 0.375000 0.500000
vt 0.343750 1.000000
vt 0.343750 0.500000
vt 0.312500 1.000000
vt 0.312500 0.500000
vt 0.281250 1.000000
vt 0.281250 0.500000
vt 0.250000 1.000000
vt 0.250000 0.500000
vt 0.218750 1.000000
vt 0.218750 0.500000
vt 0.187500 1.000000
vt 0.187500 0.500000
vt 0.156250 1.000000
vt 0.156250 0.500000
vt 0.125000 1.000000
vt 0.125000 0.500000
vt 0.093750 1.000000
vt 0.093750 0.500000
vt 0.062500 1.000000
vt 0.062500 0.500000
vt 0.341844 0.028269
vt 0.383337 0.050447
vt 0.419706 0.080294
vt 0.449553 0.116663
vt 0.471731 0.158156
vt 0.364282 0.165757
vt 0.207061 0.114673
vt 0.158156 0.028269
vt 0.203178 0.014612
vt 0.250000 0.010000
vt 0.296822 0.014612
vt 0.471731 0.341844
vt 0.449553 0.383337
vt 0.419706 0.419706
vt 0.383337 0.449553
vt 0.341844 0.471731
vt 0.296822 0.485388
vt 0.250000 0.490000
vt 0.203178 0.485388
vt 0.158156 0.471731
vt 0.116663 0.449553
vt 0.080294 0.419706
vt 0.050447 0.383337
vt 0.028269 0.341844
vt 0.014612 0.296822
vt 0.010000 0.250000
vt 0.014612 0.203178
vt 0.028269 0.158156
vt 0.050447 0.116663
vt 0.080294 0.080294
vt 0.116663 0.050447
vt 0.109180 0.250606
vt 0.205908 0.385702
vt 0.363569 0.333262
vt 0.485388 0.203178
vt 0.490000 0.250000
vt 0.485388 0.296822
vt 0.031250 1.000000
vt 0.031250 0.500000
vt 0.000000 1.000000
vt 0.000000 0.500000
vt 0.703178 0.485388
vt 0.750000 0.490000
vt 0.796822 0.485388
vt 0.841844 0.471731
vt 0.883337 0.449553
vt 0.919706 0.419706
vt 0.949553 0.383337
vt 0.971731 0.341844
vt 0.985388 0.296822
vt 0.990000 0.250000
vt 0.985388 0.203178
vt 0.971731 0.158156
vt 0.949553 0.116663
vt 0.919706 0.080294
vt 0.883337 0.050447
vt 0.841844 0.028269
vt 0.796822 0.014612
vt 0.750000 0.010000
vt 0.703178 0.014612
vt 0.658156 0.028269
vt 0.616663 0.050447
vt 0.580294 0.080294
vt 0.550447 0.116663
vt 0.528269 0.158156
vt 0.514612 0.203178
vt 0.510000 0.250000
vt 0.514612 0.296822
vt 0.528269 0.341844
vt 0.550447 0.383337
vt 0.580294 0.419706
vt 0.616663 0.449553
vt 0.658156 0.471731
vt 1.000000 0.937500
vt 1.000000 0.500000
vt 0.800000 0.500000
vt 0.800000 0.937500
vt 0.600000 0.500000
vt 0.600000 0.937500
vt 0.400000 0.500000
vt 0.400000 0.937500
vt 0.200000 0.500000
vt 0.200000 0.937500
vt 0.000000 0.500000
vt 0.000000 0.937500
vt 0.978254 0.324164
vt 0.750000 0.490000
vt 0.521746 0.324164
vt 0.608932 0.055836
vt 0.891068 0.055836
vn 0.0980 0.0000 -0.9952
vn 0.2903 0.0000 -0.9569
vn 0.4714 0.0000 -0.8819
vn 0.6344 0.0000 -0.7730
vn 0.7730 0.0000 -0.6344
vn 0.8819 0.0000 -0.4714
vn 0.9569 0.0000 -0.2903
vn 0.9952 0.0000 -0.0980
vn 0.9952 0.0000 0.0980
vn 0.9569 0.0000 0.2903
vn 0.8819 0.0000 0.4714
vn 0.7730 0.0000 0.6344
vn 0.6344 0.0000 0.7730
vn 0.4714 0.0000 0.8819
vn 0.2903 0.0000 0.9569
vn 0.0980 0.0000 0.9952
vn -0.0980 0.0000 0.9952
vn -0.2903 0.0000 0.9569
vn -0.4714 0.0000 0.8819
vn -0.6344 0.0000 0.7730
vn -0.7730 0.0000 0.6344
vn -0.8819 0.0000 0.4714
vn -0.9569 0.0000 0.2903
vn -0.9952 0.0000 0.0980
vn -0.9952 0.0000 -0.0980
vn -0.9569 0.0000 -0.2903
vn -0.8819 0.0000 -0.4714
vn -0.7730 0.0000 -0.6344
vn -0.6344 0.0000 -0.7730
vn -0.4714 0.0000 -0.8819
vn 0.0000 1.0000 0.0000
vn -0.2903 0.0000 -0.9569
vn -0.0980 0.0000 -0.9952
vn 0.0000 -1.0000 0.0000
vn -0.3156 0.0000 0.9489
vn -1.0000 0.0000 0.0043
vn -0.3090 0.0000 -0.9511
vn 0.8115 0.0000 -0.5843
vn 0.8131 0.0000 0.5822
usemtl Red
s off
f 1/1/1 3/2/1 6/3/1 4/4/1
f 4/4/2 6/3/2 9/5/2 7/6/2
f 7/6/3 9/5/3 12/7/3 10/8/3
f 10/8/4 12/7/4 15/9/4 14/10/4
f 14/10/5 15/9/5 17/11/5 16/12/5
f 16/12/6 17/11/6 19/13/6 18/14/6
f 18/14/7 19/13/7 21/15/7 20/16/7
f 20/16/8 21/15/8 23/17/8 22/18/8
f 22/18/9 23/17/9 25/19/9 24/20/9
f 24/20/10 25/19/10 27/21/10 26/22/10
f 26/22/11 27/21/11 29/23/11 28/24/11
f 28/24/12 29/23/12 31/25/12 30/26/12
f 30/26/13 31/25/13 33/27/13 32/28/13
f 32/28/14 33/27/14 35/29/14 34/30/14
f 34/30/15 35/29/15 37/31/15 36/32/15
f 36/32/16 37/31/16 39/33/16 38/34/16
f 38/34/17 39/33/17 41/35/17 40/36/17
f 40/36/18 41/35/18 43/37/18 42/38/18
f 42/38/19 43/37/19 45/39/19 44/40/19
f 44/40/20 45/39/20 47/41/20 46/42/20
f 46/42/21 47/41/21 49/43/21 48/44/21
f 48/44/22 49/43/22 51/45/22 50/46/22
f 50/46/23 51/45/23 53/47/23 52/48/23
f 52/48/24 53/47/24 55/49/24 54/50/24
f 54/50/25 55/49/25 57/51/25 56/52/25
f 56/52/26 57/51/26 59/53/26 58/54/26
f 58/54/27 59/53/27 61/55/27 60/56/27
f 60/56/28 61/55/28 63/57/28 62/58/28
f 62/58/29 63/57/29 65/59/29 64/60/29
f 64/60/30 65/59/30 67/61/30 66/62/30
f 35/63/31 33/64/31 31/65/31 29/66/31 27/67/31 74/68/31 72/69/31 43/70/31 41/71/31 39/72/31 37/73/31
f 19/74/31 17/75/31 15/76/31 12/77/31 9/78/31 6/79/31 3/80/31 69/81/31 67/82/31 65/83/31 63/84/31 61/85/31 59/86/31 57/87/31 55/88/31 53/89/31 51/90/31 49/91/31 47/92/31 45/93/31 43/70/31 72/69/31 70/94/31 71/95/31 73/96/31 74/68/31 27/67/31 25/97/31 23/98/31 21/99/31
f 66/62/32 67/61/32 69/100/32 68/101/32
f 68/101/33 69/100/33 3/102/33 1/103/33
f 68/104/34 1/105/34 4/106/34 7/107/34 10/108/34 14/109/34 16/110/34 18/111/34 20/112/34 22/113/34 24/114/34 26/115/34 28/116/34 30/117/34 32/118/34 34/119/34 36/120/34 38/121/34 40/122/34 42/123/34 44/124/34 46/125/34 48/126/34 50/127/34 52/128/34 54/129/34 56/130/34 58/131/34 60/132/34 62/133/34 64/134/34 66/135/34
usemtl Blue
f 71/136/35 2/137/35 5/138/35 73/139/35
f 5/138/36 8/140/36 74/141/36 73/139/36
f 8/140/37 11/142/37 72/143/37 74/141/37
f 72/143/38 11/142/38 13/144/38 70/145/38
f 70/145/39 13/144/39 2/146/39 71/147/39
f 5/148/31 2/149/31 13/150/31 11/151/31 8/152/31
