# Blender v3.4.1 OBJ File: 'U_Caps_and_Bottles.blend'
# www.blender.org
mtllib U_cylinder_bottle.mtl
o Bottle_Cylinder
v 0.000000 -0.038000 -0.038000
v -0.019570 0.011400 0.019570
v 0.000000 0.038000 -0.038000
v -0.002660 0.011400 0.000190
v 0.007413 -0.038000 -0.037270
v 0.007413 0.038000 -0.037270
v 0.014542 -0.038000 -0.035107
v -0.019570 0.011400 -0.019570
v -0.002660 0.011400 -0.000190
v 0.014542 0.038000 -0.035107
v 0.021112 -0.038000 -0.031596
v 0.021112 0.038000 -0.031596
v 0.026870 -0.038000 -0.026870
v 0.019570 0.011400 0.019570
v 0.026870 0.038000 -0.026870
v 0.019570 0.011400 -0.019570
v 0.031596 -0.038000 -0.021112
v 0.031596 0.038000 -0.021112
v 0.035107 -0.038000 -0.014542
v 0.035107 0.038000 -0.014542
v 0.037270 -0.038000 -0.007413
v 0.019570 0.011400 0.000190
v 0.037270 0.038000 -0.007413
v 0.019570 0.011400 -0.000190
v 0.038000 -0.038000 0.000000
v 0.038000 0.038000 0.000000
v 0.037270 -0.038000 0.007413
v 0.037270 0.038000 0.007413
v 0.035107 -0.038000 0.014542
v 0.035107 0.038000 0.014542
v 0.031596 -0.038000 0.021112
v 0.031596 0.038000 0.021112
v 0.026870 -0.038000 0.026870
v 0.026870 0.038000 0.026870
v 0.021112 -0.038000 0.031596
v 0.021112 0.038000 0.031596
v 0.014542 -0.038000 0.035107
v 0.014542 0.038000 0.035107
v 0.007413 -0.038000 0.037270
v 0.007413 0.038000 0.037270
v 0.000000 -0.038000 0.038000
v 0.000000 0.038000 0.038000
v -0.007413 -0.038000 0.037270
v -0.007413 0.038000 0.037270
v -0.014542 -0.038000 0.035107
v -0.014542 0.038000 0.035107
v -0.021112 -0.038000 0.031596
v -0.021112 0.038000 0.031596
v -0.026870 -0.038000 0.026870
v -0.026870 0.038000 0.026870
v -0.031596 -0.038000 0.021112
v -0.031596 0.038000 0.021112
v -0.035107 -0.038000 0.014542
v -0.035107 0.038000 0.014542
v -0.037270 -0.038000 0.007413
v -0.037270 0.038000 0.007413
v -0.038000 -0.038000 0.000000
v -0.038000 0.038000 0.000000
v -0.037270 -0.038000 -0.007413
v -0.037270 0.038000 -0.007413
v -0.035107 -0.038000 -0.014542
v -0.035107 0.038000 -0.014542
v -0.031596 -0.038000 -0.021112
v -0.031596 0.038000 -0.021112
v -0.026870 -0.038000 -0.026870
v -0.026870 0.038000 -0.026870
v -0.021112 -0.038000 -0.031596
v -0.021112 0.038000 -0.031596
v -0.014542 -0.038000 -0.035107
v -0.014542 0.038000 -0.035107
v -0.007413 -0.038000 -0.037270
v -0.007413 0.038000 -0.037270
v -0.019570 0.038000 0.019570
v -0.014677 0.038000 0.019570
v -0.019570 0.038000 -0.019570
v -0.002660 0.038000 0.000190
v -0.002660 0.038000 -0.000190
v 0.019570 0.038000 -0.000190
v 0.019570 0.038000 -0.019570
v 0.019570 0.038000 0.019570
v 0.019570 0.038000 0.000190
v 0.014677 0.038000 -0.019570
vt 1.000000 0.500000
vt 1.000000 1.000000
vt 0.968750 1.000000
vt 0.968750 0.500000
vt 0.937500 1.000000
vt 0.937500 0.500000
vt 0.906250 1.000000
vt 0.906250 0.500000
vt 0.875000 1.000000
vt 0.875000 0.500000
vt 0.843750 1.000000
vt 0.843750 0.500000
vt 0.812500 1.000000
vt 0.812500 0.500000
vt 0.781250 1.000000
vt 0.781250 0.500000
vt 0.750000 1.000000
vt 0.750000 0.500000
vt 0.718750 1.000000
vt 0.718750 0.500000
vt 0.687500 1.000000
vt 0.687500 0.500000
vt 0.656250 1.000000
vt 0.656250 0.500000
vt 0.625000 1.000000
vt 0.625000 0.500000
vt 0.593750 1.000000
vt 0.593750 0.500000
vt 0.562500 1.000000
vt 0.562500 0.500000
vt 0.531250 1.000000
vt 0.531250 0.500000
vt 0.500000 1.000000
vt 0.500000 0.500000
vt 0.468750 1.000000
vt 0.468750 0.500000
vt 0.437500 1.000000
vt 0.437500 0.500000
vt 0.406250 1.000000
vt 0.406250 0.500000
vt 0.375000 1.000000
vt 0.375000 0.500000
vt 0.343750 1.000000
vt 0.343750 0.500000
vt 0.312500 1.000000
vt 0.312500 0.500000
vt 0.281250 1.000000
vt 0.281250 0.500000
vt 0.250000 1.000000
vt 0.250000 0.500000
vt 0.218750 1.000000
vt 0.218750 0.500000
vt 0.187500 1.000000
vt 0.187500 0.500000
vt 0.156250 1.000000
vt 0.156250 0.500000
vt 0.125000 1.000000
vt 0.125000 0.500000
vt 0.093750 1.000000
vt 0.093750 0.500000
vt 0.062500 1.000000
vt 0.062500 0.500000
vt 0.158156 0.471731
vt 0.116663 0.449553
vt 0.080294 0.419706
vt 0.050447 0.383337
vt 0.028269 0.341844
vt 0.014612 0.296822
vt 0.010000 0.250000
vt 0.014612 0.203178
vt 0.028269 0.158156
vt 0.050447 0.116663
vt 0.080294 0.080294
vt 0.116663 0.050447
vt 0.158156 0.028269
vt 0.157300 0.126400
vt 0.126400 0.126400
vt 0.126400 0.373600
vt 0.342700 0.373600
vt 0.341844 0.471731
vt 0.296822 0.485388
vt 0.250000 0.490000
vt 0.203178 0.485388
vt 0.341844 0.028269
vt 0.383337 0.050447
vt 0.419706 0.080294
vt 0.449553 0.116663
vt 0.471731 0.158156
vt 0.485388 0.203178
vt 0.490000 0.250000
vt 0.485388 0.296822
vt 0.471731 0.341844
vt 0.449553 0.383337
vt 0.419706 0.419706
vt 0.383337 0.449553
vt 0.373600 0.373600
vt 0.373600 0.251200
vt 0.233200 0.251200
vt 0.233200 0.248800
vt 0.373600 0.248800
vt 0.373600 0.126400
vt 0.203178 0.014612
vt 0.250000 0.010000
vt 0.296822 0.014612
vt 0.031250 1.000000
vt 0.031250 0.500000
vt 0.000000 1.000000
vt 0.000000 0.500000
vt 0.703178 0.485388
vt 0.750000 0.490000
vt 0.796822 0.485388
vt 0.841844 0.471731
vt 0.883337 0.449553
vt 0.919706 0.419706
vt 0.949553 0.383337
vt 0.971731 0.341844
vt 0.985388 0.296822
vt 0.990000 0.250000
vt 0.985388 0.203178
vt 0.971731 0.158156
vt 0.949553 0.116663
vt 0.919706 0.080294
vt 0.883337 0.050447
vt 0.841844 0.028269
vt 0.796822 0.014612
vt 0.750000 0.010000
vt 0.703178 0.014612
vt 0.658156 0.028269
vt 0.616663 0.050447
vt 0.580294 0.080294
vt 0.550447 0.116663
vt 0.528269 0.158156
vt 0.514612 0.203178
vt 0.510000 0.250000
vt 0.514612 0.296822
vt 0.528269 0.341844
vt 0.550447 0.383337
vt 0.580294 0.419706
vt 0.616663 0.449553
vt 0.658156 0.471731
vt 0.593750 0.000000
vt 0.375000 0.000000
vt 0.375000 0.250000
vt 0.593750 0.250000
vt 0.375000 0.500000
vt 0.593750 0.500000
vt 0.593750 0.468750
vt 0.375000 0.626214
vt 0.375000 0.750000
vt 0.593750 0.750000
vt 0.593750 0.626214
vt 0.375000 0.623786
vt 0.593750 0.623786
vt 0.375000 1.000000
vt 0.593750 1.000000
vt 0.593750 0.968750
vt 0.125000 0.500000
vt 0.125000 0.750000
vt 0.233010 0.626214
vt 0.233010 0.623786
vt 0.375000 0.250000
vt 0.375000 0.000000
vt 0.593750 0.000000
vt 0.593750 0.250000
vt 0.375000 0.500000
vt 0.593750 0.500000
vt 0.593750 1.000000
vt 0.375000 1.000000
vt 0.375000 0.750000
vt 0.593750 0.750000
vn 0.0980 0.0000 -0.9952
vn 0.2903 0.0000 -0.9569
vn 0.4714 0.0000 -0.8819
vn 0.6344 0.0000 -0.7730
vn 0.7730 0.0000 -0.6344
vn 0.8819 0.0000 -0.4714
vn 0.9569 0.0000 -0.2903
vn 0.9952 0.0000 -0.0980
vn 0.9952 0.0000 0.0980
vn 0.9569 0.0000 0.2903
vn 0.8819 0.0000 0.4714
vn 0.7730 0.0000 0.6344
vn 0.6344 0.0000 0.7730
vn 0.4714 0.0000 0.8819
vn 0.2903 0.0000 0.9569
vn 0.0980 0.0000 0.9952
vn -0.0980 0.0000 0.9952
vn -0.2903 0.0000 0.9569
vn -0.4714 0.0000 0.8819
vn -0.6344 0.0000 0.7730
vn -0.7730 0.0000 0.6344
vn -0.8819 0.0000 0.4714
vn -0.9569 0.0000 0.2903
vn -0.9952 0.0000 0.0980
vn -0.9952 0.0000 -0.0980
vn -0.9569 0.0000 -0.2903
vn -0.8819 0.0000 -0.4714
vn -0.7730 0.0000 -0.6344
vn -0.6344 0.0000 -0.7730
vn -0.4714 0.0000 -0.8819
vn 0.0000 1.0000 -0.0000
vn -0.2903 0.0000 -0.9569
vn -0.0980 0.0000 -0.9952
vn 0.0000 -1.0000 0.0000
vn 1.0000 0.0000 0.0000
vn 0.0000 0.0000 1.0000
vn -1.0000 0.0000 0.0000
vn 0.0000 0.0000 -1.0000
usemtl Red
s off
f 1/1/1 3/2/1 6/3/1 5/4/1
f 5/4/2 6/3/2 10/5/2 7/6/2
f 7/6/3 10/5/3 12/7/3 11/8/3
f 11/8/4 12/7/4 15/9/4 13/10/4
f 13/10/5 15/9/5 18/11/5 17/12/5
f 17/12/6 18/11/6 20/13/6 19/14/6
f 19/14/7 20/13/7 23/15/7 21/16/7
f 21/16/8 23/15/8 26/17/8 25/18/8
f 25/18/9 26/17/9 28/19/9 27/20/9
f 27/20/10 28/19/10 30/21/10 29/22/10
f 29/22/11 30/21/11 32/23/11 31/24/11
f 31/24/12 32/23/12 34/25/12 33/26/12
f 33/26/13 34/25/13 36/27/13 35/28/13
f 35/28/14 36/27/14 38/29/14 37/30/14
f 37/30/15 38/29/15 40/31/15 39/32/15
f 39/32/16 40/31/16 42/33/16 41/34/16
f 41/34/17 42/33/17 44/35/17 43/36/17
f 43/36/18 44/35/18 46/37/18 45/38/18
f 45/38/19 46/37/19 48/39/19 47/40/19
f 47/40/20 48/39/20 50/41/20 49/42/20
f 49/42/21 50/41/21 52/43/21 51/44/21
f 51/44/22 52/43/22 54/45/22 53/46/22
f 53/46/23 54/45/23 56/47/23 55/48/23
f 55/48/24 56/47/24 58/49/24 57/50/24
f 57/50/25 58/49/25 60/51/25 59/52/25
f 59/52/26 60/51/26 62/53/26 61/54/26
f 61/54/27 62/53/27 64/55/27 63/56/27
f 63/56/28 64/55/28 66/57/28 65/58/28
f 65/58/29 66/57/29 68/59/29 67/60/29
f 67/60/30 68/59/30 70/61/30 69/62/30
f 70/63/31 68/64/31 66/65/31 64/66/31 62/67/31 60/68/31 58/69/31 56/70/31 54/71/31 52/72/31 50/73/31 48/74/31 46/75/31 74/76/31 73/77/31 75/78/31 82/79/31 10/80/31 6/81/31 3/82/31 72/83/31
f 38/84/31 36/85/31 34/86/31 32/87/31 30/88/31 28/89/31 26/90/31 23/91/31 20/92/31 18/93/31 15/94/31 12/95/31 10/80/31 82/79/31 79/96/31 78/97/31 77/98/31 76/99/31 81/100/31 80/101/31 74/76/31 46/75/31 44/102/31 42/103/31 40/104/31
f 69/62/32 70/61/32 72/105/32 71/106/32
f 71/106/33 72/105/33 3/107/33 1/108/33
f 71/109/34 1/110/34 5/111/34 7/112/34 11/113/34 13/114/34 17/115/34 19/116/34 21/117/34 25/118/34 27/119/34 29/120/34 31/121/34 33/122/34 35/123/34 37/124/34 39/125/34 41/126/34 43/127/34 45/128/34 47/129/34 49/130/34 51/131/34 53/132/34 55/133/34 57/134/34 59/135/34 61/136/34 63/137/34 65/138/34 67/139/34 69/140/34
usemtl Blue
f 73/141/35 2/142/35 8/143/35 75/144/35
f 75/144/36 8/143/36 16/145/36 79/146/36 82/147/36
f 22/148/37 14/149/37 80/150/37 81/151/37
f 16/145/37 24/152/37 78/153/37 79/146/37
f 14/149/38 2/154/38 73/155/38 74/156/38 80/150/38
f 8/157/31 2/158/31 14/149/31 22/148/31 4/159/31 9/160/31 24/152/31 16/145/31
f 9/161/37 4/162/37 76/163/37 77/164/37
f 24/165/38 9/161/38 77/164/38 78/166/38
f 76/167/36 4/168/36 22/169/36 81/170/36
