# Blender v3.4.1 OBJ File: 'U_Caps_and_Bottles.blend'
# www.blender.org
mtllib U_octagonal_bottle.mtl
o Bottle_Cylinder
v -0.014542 -0.038000 -0.035107
v -0.019570 0.011400 0.019570
v -0.014542 0.038000 -0.035107
v -0.002660 0.011400 0.000190
v 0.014542 -0.038000 -0.035107
v 0.014542 0.038000 -0.035107
v 0.035107 -0.038000 -0.014542
v -0.019570 0.011400 -0.019570
v -0.002660 0.011400 -0.000190
v 0.035107 0.038000 -0.014542
v 0.035107 -0.038000 0.014542
v 0.035107 0.038000 0.014542
v 0.014542 -0.038000 0.035107
v 0.019570 0.011400 0.019570
v 0.014542 0.038000 0.035107
v -0.014542 -0.038000 0.035107
v 0.019570 0.011400 -0.019570
v -0.014542 0.038000 0.035107
v -0.035107 -0.038000 0.014542
v -0.035107 0.038000 0.014542
v -0.035107 -0.038000 -0.014542
v 0.019570 0.011400 0.000190
v -0.035107 0.038000 -0.014542
v 0.019570 0.011400 -0.000190
v -0.019570 0.038000 -0.019570
v -0.002660 0.038000 0.000190
v -0.002660 0.038000 -0.000190
v 0.019570 0.038000 -0.017147
v 0.019570 0.038000 -0.019570
v -0.019570 0.038000 0.019570
v 0.019570 0.038000 -0.000190
v 0.019570 0.038000 0.000190
v 0.019570 0.038000 0.019570
vt 1.000000 0.500000
vt 1.000000 1.000000
vt 0.875000 1.000000
vt 0.875000 0.500000
vt 0.750000 1.000000
vt 0.750000 0.500000
vt 0.625000 1.000000
vt 0.625000 0.500000
vt 0.500000 1.000000
vt 0.500000 0.500000
vt 0.375000 1.000000
vt 0.375000 0.500000
vt 0.250000 1.000000
vt 0.250000 0.500000
vt 0.250000 0.010000
vt 0.419706 0.080294
vt 0.490000 0.250000
vt 0.405636 0.302756
vt 0.364651 0.203809
vt 0.234938 0.257538
vt 0.234020 0.255320
vt 0.363732 0.201592
vt 0.316892 0.088509
vt 0.419706 0.419706
vt 0.250000 0.490000
vt 0.080294 0.419706
vt 0.010000 0.250000
vt 0.080294 0.080294
vt 0.088509 0.183108
vt 0.183108 0.411491
vt 0.411491 0.316892
vt 0.125000 1.000000
vt 0.125000 0.500000
vt 0.000000 1.000000
vt 0.000000 0.500000
vt 0.580294 0.419706
vt 0.750000 0.490000
vt 0.919706 0.419706
vt 0.990000 0.250000
vt 0.919706 0.080294
vt 0.750000 0.010000
vt 0.580294 0.080294
vt 0.510000 0.250000
vt 0.593750 0.000000
vt 0.375000 0.000000
vt 0.375000 0.250000
vt 0.593750 0.250000
vt 0.375000 0.500000
vt 0.593750 0.500000
vt 0.375000 0.626214
vt 0.375000 0.750000
vt 0.593750 0.750000
vt 0.593750 0.626214
vt 0.375000 0.623786
vt 0.593750 0.623786
vt 0.593750 0.515473
vt 0.375000 1.000000
vt 0.593750 1.000000
vt 0.125000 0.500000
vt 0.125000 0.750000
vt 0.233010 0.626214
vt 0.233010 0.623786
vt 0.375000 0.250000
vt 0.375000 0.000000
vt 0.593750 0.000000
vt 0.593750 0.250000
vt 0.375000 0.500000
vt 0.593750 0.500000
vt 0.593750 1.000000
vt 0.375000 1.000000
vt 0.375000 0.750000
vt 0.593750 0.750000
vn -0.0000 0.0000 -1.0000
vn 0.7071 0.0000 -0.7071
vn 1.0000 0.0000 -0.0000
vn 0.7071 0.0000 0.7071
vn 0.0000 0.0000 1.0000
vn -0.7071 0.0000 0.7071
vn 0.0000 1.0000 -0.0000
vn -1.0000 0.0000 0.0000
vn -0.7071 0.0000 -0.7071
vn 0.0000 -1.0000 0.0000
usemtl Red
s off
f 1/1/1 3/2/1 6/3/1 5/4/1
f 5/4/2 6/3/2 10/5/2 7/6/2
f 7/6/3 10/5/3 12/7/3 11/8/3
f 11/8/4 12/7/4 15/9/4 13/10/4
f 13/10/5 15/9/5 18/11/5 16/12/5
f 16/12/6 18/11/6 20/13/6 19/14/6
f 15/15/7 12/16/7 10/17/7 28/18/7 31/19/7 27/20/7 26/21/7 32/22/7 33/23/7
f 10/17/7 6/24/7 3/25/7 23/26/7 20/27/7 18/28/7 15/15/7 33/23/7 30/29/7 25/30/7 29/31/7 28/18/7
f 19/14/8 20/13/8 23/32/8 21/33/8
f 21/33/9 23/32/9 3/34/9 1/35/9
f 21/36/10 1/37/10 5/38/10 7/39/10 11/40/10 13/41/10 16/42/10 19/43/10
usemtl Blue
f 30/44/3 2/45/3 8/46/3 25/47/3
f 25/47/5 8/46/5 17/48/5 29/49/5
f 22/50/8 14/51/8 33/52/8 32/53/8
f 17/48/8 24/54/8 31/55/8 28/56/8 29/49/8
f 14/51/1 2/57/1 30/58/1 33/52/1
f 8/59/7 2/60/7 14/51/7 22/50/7 4/61/7 9/62/7 24/54/7 17/48/7
f 9/63/8 4/64/8 26/65/8 27/66/8
f 24/67/1 9/63/1 27/66/1 31/68/1
f 26/69/5 4/70/5 22/71/5 32/72/5
