# Blender v3.4.1 OBJ File: 'U_Caps_and_Bottles.blend'
# www.blender.org
mtllib U_octagonal_cap.mtl
o Cap_Cylinder.001
v -0.014542 -0.038000 -0.035107
v -0.014542 0.038000 -0.035107
v 0.014542 -0.038000 -0.035107
v 0.014542 0.038000 -0.035107
v 0.035107 -0.038000 -0.014542
v 0.035107 0.038000 -0.014542
v 0.035107 -0.038000 0.014542
v 0.035107 0.038000 0.014542
v 0.014542 -0.038000 0.035107
v 0.014542 0.038000 0.035107
v -0.014542 -0.038000 0.035107
v -0.014542 0.038000 0.035107
v -0.035107 -0.038000 0.014542
v -0.035107 0.038000 0.014542
v -0.035107 -0.038000 -0.014542
v -0.035107 0.038000 -0.014542
v -0.014820 0.038000 0.014820
v -0.007410 0.038000 0.004940
v -0.014820 0.060800 0.014820
v -0.007410 0.060800 0.004940
v -0.014820 0.038000 -0.014820
v -0.007410 0.038000 -0.004940
v -0.014820 0.060800 -0.014820
v -0.007410 0.060800 -0.004940
v 0.014820 0.038000 0.014820
v 0.014820 0.060800 0.014820
v 0.014820 0.038000 -0.014820
v 0.014820 0.060800 -0.014820
v 0.014820 0.060800 0.004940
v 0.014820 0.060800 -0.004940
v 0.014820 0.038000 0.004940
v 0.014820 0.038000 -0.004940
vt 1.000000 0.500000
vt 1.000000 1.000000
vt 0.875000 1.000000
vt 0.875000 0.500000
vt 0.750000 1.000000
vt 0.750000 0.500000
vt 0.625000 1.000000
vt 0.625000 0.500000
vt 0.500000 1.000000
vt 0.500000 0.500000
vt 0.375000 1.000000
vt 0.375000 0.500000
vt 0.250000 1.000000
vt 0.250000 0.500000
vt 0.419706 0.419706
vt 0.250000 0.490000
vt 0.080294 0.419706
vt 0.010000 0.250000
vt 0.080294 0.080294
vt 0.250000 0.010000
vt 0.419706 0.080294
vt 0.490000 0.250000
vt 0.125000 1.000000
vt 0.125000 0.500000
vt 0.000000 1.000000
vt 0.000000 0.500000
vt 0.750000 0.490000
vt 0.919706 0.419706
vt 0.990000 0.250000
vt 0.919706 0.080294
vt 0.750000 0.010000
vt 0.580294 0.080294
vt 0.510000 0.250000
vt 0.580294 0.419706
vt 0.375000 0.750000
vt 0.125000 0.750000
vt 0.125000 0.500000
vt 0.375000 0.500000
vt 0.375000 0.583333
vt 0.187500 0.583333
vt 0.187500 0.666667
vt 0.375000 0.666667
vt 0.375000 0.000000
vt 0.625000 0.000000
vt 0.625000 0.250000
vt 0.375000 0.250000
vt 0.625000 0.500000
vt 0.625000 0.750000
vt 0.625000 0.666667
vt 0.625000 0.583333
vt 0.625000 1.000000
vt 0.375000 1.000000
vt 0.875000 0.500000
vt 0.875000 0.750000
vt 0.812500 0.666667
vt 0.812500 0.583333
vt 0.625000 0.000000
vt 0.375000 0.000000
vt 0.375000 0.250000
vt 0.625000 0.250000
vt 0.375000 0.500000
vt 0.625000 0.500000
vt 0.375000 0.750000
vt 0.375000 1.000000
vt 0.625000 1.000000
vt 0.625000 0.750000
vn -0.0000 0.0000 -1.0000
vn 0.7071 0.0000 -0.7071
vn 1.0000 0.0000 -0.0000
vn 0.7071 0.0000 0.7071
vn 0.0000 0.0000 1.0000
vn -0.7071 0.0000 0.7071
vn 0.0000 1.0000 -0.0000
vn -1.0000 0.0000 0.0000
vn -0.7071 0.0000 -0.7071
vn 0.0000 -1.0000 -0.0000
usemtl Red
s off
f 1/1/1 2/2/1 4/3/1 3/4/1
f 3/4/2 4/3/2 6/5/2 5/6/2
f 5/6/3 6/5/3 8/7/3 7/8/3
f 7/8/4 8/7/4 10/9/4 9/10/4
f 9/10/5 10/9/5 12/11/5 11/12/5
f 11/12/6 12/11/6 14/13/6 13/14/6
f 4/15/7 2/16/7 16/17/7 14/18/7 12/19/7 10/20/7 8/21/7 6/22/7
f 13/14/8 14/13/8 16/23/8 15/24/8
f 15/24/9 16/23/9 2/25/9 1/26/9
f 1/27/10 3/28/10 5/29/10 7/30/10 9/31/10 11/32/10 13/33/10 15/34/10
f 25/35/10 17/36/10 21/37/10 27/38/10 32/39/10 22/40/10 18/41/10 31/42/10
usemtl Blue
f 17/43/8 19/44/8 23/45/8 21/46/8
f 21/46/1 23/45/1 28/47/1 27/38/1
f 26/48/3 25/35/3 31/42/3 29/49/3
f 32/39/3 27/38/3 28/47/3 30/50/3
f 25/35/5 26/48/5 19/51/5 17/52/5
f 30/50/7 28/47/7 23/53/7 19/54/7 26/48/7 29/49/7 20/55/7 24/56/7
f 20/57/3 18/58/3 22/59/3 24/60/3
f 32/61/5 30/62/5 24/60/5 22/59/5
f 31/63/1 18/64/1 20/65/1 29/66/1
